<svg xmlns="http://www.w3.org/2000/svg" viewBox="0 0 3000 3000" xmlns:xlink="http://www.w3.org/1999/xlink"><g id="item_j"></g><g id="item_i"></g><mask id="hooktail_mask"><g fill="white"><path d="M0 0h3000v3000H0z"></path><path d="M0 0h3000v3000H0z"></path></g><g fill="black"><path d="M2399.9,1601.2a38.3,38.3,0,0,1,19.5,3.8l14.1,8.6c-25.9,53.4-14.1,96.3.5,123a151.2,151.2,0,0,0,38.5,45.7c10,8.6,28.1,16.7,51.7,16.7a111.4,111.4,0,0,0,13.8-.9,121.9,121.9,0,0,0,24.1-5.7h31.8v155.1H2251.8V1636.6h86.1Z"></path></g></mask><g clip-path="url(#kittyClipPath)" mask=""><g id="tailFur"><clipPath id="tailFurClipPath"><path fill="none" d="M2518.1 1775.9c67.6-29 132.5 39.9 146.6 73.7 48 115.1-49.4 194.9-49.4 194.9-36.6 34.8-88.5 67.7-157.3 88.8-175.3 53.8-339.2-38.4-422.2-99l-34.7-24.9-36.1 140.1 220.6 76.5a852.5 852.5 0 0 0 229 11.7c98.1-8.4 186.9-29.1 266-104.6 93.6-89.2 148.9-239.5 82.8-373.6-44.5-90.3-152-191.5-273.6-171.9-89 14.4-190.9 94.4-182.7 186.5 5.8 64 64.6 132.1 133.1 133.9 48.3 1.2 112.1-30.2 112.1-73.4-.1-34.5-40.8-73.1-100.9-79.4"></path></clipPath><g clip-path="url(#tailFurClipPath)"><path fill="#ffebe9" d="M1904 1577.4H2843V2245.94H1904z"></path><defs><linearGradient id="tailShadowGradient" x1="2364.15" y1="2291.47" x2="2364.15" y2="2013.47" gradientUnits="userSpaceOnUse"><stop offset="0" stop-color="gray"></stop><stop offset=".27" stop-color="#7d7d7d"></stop><stop offset=".46" stop-color="#747474"></stop><stop offset=".64" stop-color="#646464"></stop><stop offset=".8" stop-color="#4d4d4d"></stop><stop offset=".95" stop-color="#303030"></stop><stop offset="1" stop-color="#242424"></stop></linearGradient><linearGradient id="tailShadowGradient2" x1="2579.15" y1="1935.2" x2="2579.15" y2="1441.6" gradientUnits="userSpaceOnUse"><stop offset="0" stop-color="#fff" stop-opacity="0"></stop><stop offset=".72" stop-color="#fff"></stop></linearGradient><linearGradient id="tailShadowGradient3" x1="2583.8" y1="2124.84" x2="2583.8" y2="1726.66" href="#tailShadowGradient" xlink:href="#tailShadowGradient"></linearGradient></defs><g clip-path="url(#tailShadowClipPath)" style="mix-blend-mode:overlay"><path d="M2307.1 1774.1s77.1-188.9 277.1-114.6 203.7 275.7 203.7 275.7l134.3-263.7-234-212.5-344-17.4-108 123.9z" opacity=".35" fill="url(#tailShadowGradient2)" style="mix-blend-mode:overlay"></path></g><g clip-path="url(#tailShadowClipPath)" style="mix-blend-mode:multiply"><path d="M2135.9 2084.1c107 52 71.6 104 199.2 113.8 208.3 32.6 329.5-41.9 390.8-121l100.2-44.4-96 259-828-9.1 54-268.9s122.5 42.7 179.8 70.6z" opacity=".25" fill="url(#tailShadowGradient)" style="mix-blend-mode:multiply"></path><path d="M2519.6 1734.3c8.4-2.3 109.1-43.4 164.5 92.2 57.5 140.6-26.3 224.4-201.1 298.4l96.1-317.4s-20.1-11.2-61-31.6-52.7-18.9-52.7-18.9 20.5-10.4 54.2-22.7z" opacity=".25" fill="url(#tailShadowGradient3)" style="mix-blend-mode:multiply"></path></g></g></g><g id="tail"><path d="M2515.9 1770l5.8-2.2 1.6-.5 1.6-.5 3.3-1 3.3-.8 3.2-.7 3.3-.6 3.3-.5a92.5 92.5 0 0 1 26.4.8 110 110 0 0 1 25 7.6 138.2 138.2 0 0 1 22.6 12.5 169 169 0 0 1 20 16 181.2 181.2 0 0 1 17.5 18.7 139.6 139.6 0 0 1 14.5 21.4l1.5 3 1.4 3.1.3.8v.9l.6 1.4 1.1 2.9 2.2 5.8 2 6.2 1 3.1c.3 1 .7 2.1.9 3.1l1.5 6.2.8 3.1.6 3.2 1.1 6.3c.4 2.1.5 4.2.8 6.4l.4 3.2.2 1.6v1.6l.3 6.4v6.4a154.3 154.3 0 0 1-2.3 25.6l-1.2 6.3c-.5 2.1-1 4.2-1.5 6.2s-.5 2.1-.8 3.1l-.9 3.1-.9 3.1-.5 1.5-.5 1.5-2.1 6-2.4 5.9c-.8 2-1.7 3.9-2.6 5.8l-1.3 2.9-1.4 2.9a193.8 193.8 0 0 1-12.9 22 213.5 213.5 0 0 1-15.5 20.2c-2.8 3.2-5.6 6.3-8.6 9.4l-4.6 4.5-2.4 2.2-2.6 2.2.3-.3a366.6 366.6 0 0 1-68.8 51 404.9 404.9 0 0 1-38.1 19.4q-19.5 8.7-39.8 15.6l-10.2 3.3-2.5.8h-.8l-.6.2-1.3.4-5.1 1.4-10.2 2.8-10.5 2.5-5.3 1.2-5.3 1-10.5 2-10.6 1.5-5.3.7-5.3.6-10.7 1-10.7.6c-7.1.5-14.3.4-21.4.5l-10.7-.3-5.4-.2-5.3-.3-10.7-.7-10.6-1.1-5.3-.6-5.3-.7-10.6-1.5c-7-1.3-14.1-2.4-21-4-14-2.8-27.7-6.5-41.4-10.6l-10.2-3.2-10.1-3.4c-3.4-1.1-6.7-2.4-10-3.6s-6.7-2.4-10-3.8l-9.9-4-9.8-4.2-9.7-4.4-9.7-4.5c-12.8-6.1-25.4-12.7-37.8-19.6s-24.5-14.3-36.5-21.9-23.6-15.7-35-24l-34.2-24.6 9.7-3.5-35.8 140.3-4-7.5 220.6 76.5-.9-.2a866.3 866.3 0 0 0 126.3 14q31.8 1.1 63.6-.1c21.2-.8 42.3-2.5 63.4-4.9a628.3 628.3 0 0 0 62.5-10 412.3 412.3 0 0 0 60.4-18 344.9 344.9 0 0 0 56.3-27.9 331.7 331.7 0 0 0 50.1-37.9l5.8-5.3.7-.7.4-.3.3-.3 1.4-1.4 2.8-2.8c3.9-3.7 7.4-7.5 11-11.3l1.3-1.4 1.3-1.5 2.6-2.9c1.7-2 3.5-3.9 5.2-5.9 3.3-4.1 6.8-8 9.9-12.2l4.8-6.2 4.6-6.4 2.3-3.2 2.2-3.3 4.4-6.5c5.6-8.9 11.1-17.8 16-27.1 2.5-4.6 4.8-9.3 7.1-14 1.2-2.3 2.2-4.8 3.3-7.1s2.2-4.8 3.2-7.2l3-7.3 1.5-3.6 1.4-3.7 2.7-7.4 2.4-7.5c1.7-5 3-10 4.5-15.1.4-1.3.7-2.5 1-3.8l.9-3.8c.6-2.5 1.3-5.1 1.8-7.6l1.6-7.7c.2-1.3.6-2.6.7-3.9l.6-3.9 1.2-7.7.9-7.8a282.3 282.3 0 0 0 .3-62.5l-.4-3.9c-.1-1.3-.4-2.6-.5-3.9l-1.1-7.7-.3-1.9-.4-1.9-.8-3.8c-.5-2.6-.9-5.1-1.5-7.7l-1.9-7.6-.9-3.8-1.1-3.8-2.2-7.5c-.3-1.3-.8-2.5-1.2-3.7l-1.3-3.7c-13.7-39.4-36.7-75.5-64.5-106.9-7-7.8-14.4-15.3-22-22.5s-15.7-13.9-23.9-20.4-16.9-12.3-25.8-17.8l-6.7-4-3.4-2-3.5-1.8c-2.3-1.2-4.6-2.5-6.9-3.6l-7-3.4-3.6-1.6-3.6-1.5-3.6-1.5-3.6-1.4-7.3-2.7-7.4-2.4c-2.5-.8-5-1.4-7.5-2.1s-5-1.4-7.5-1.9l-7.6-1.6-7.7-1.2a183.9 183.9 0 0 0-30.9-1.9h-3.9l-3.9.3-7.7.6-7.7 1-1.9.3h-.8l-1 .2-3.9.7-3.9.7-3.7.9-3.7.8-3.8 1c-2.5.7-5 1.3-7.5 2.1s-5 1.5-7.4 2.4a238.4 238.4 0 0 0-28.8 12 265.3 265.3 0 0 0-27.2 15.4l-6.5 4.3-6.4 4.5-6.2 4.8c-2.1 1.6-4 3.3-6 5a224.5 224.5 0 0 0-22.3 21.7 177.5 177.5 0 0 0-18.6 24.7c-10.9 17.4-18.4 36.9-20.4 57.1-.2 2.5-.6 5-.5 7.6v7.6l.2 3.8v3.7l.5 4c.2 1.3.4 2.5.6 3.7s1 4.9 1.5 7.4.6 2.5.9 3.7.6 2.5 1 3.7 1.5 4.9 2.4 7.3l1.3 3.6 1.5 3.6a154.6 154.6 0 0 0 14.6 27 157 157 0 0 0 19.6 23.7c3.6 3.7 7.4 7 11.4 10.3a147.3 147.3 0 0 0 12.4 9 140.1 140.1 0 0 0 13.2 7.6 124 124 0 0 0 14 5.9 116.7 116.7 0 0 0 14.5 4 105 105 0 0 0 14.9 1.9h11.3l3.8-.3a138.1 138.1 0 0 0 15.1-2.2 144.7 144.7 0 0 0 14.8-3.8 136.8 136.8 0 0 0 14.4-5.3 118.7 118.7 0 0 0 26.2-15.3c7.9-6.1 14.7-13.6 19-22.1a42.5 42.5 0 0 0 4.2-13.3v-7.1a7.8 7.8 0 0 0-.1-.9v-.8c-.1-.6-.1-1.1-.2-1.7s-.3-2.3-.6-3.5a55 55 0 0 0-5.1-13.6 71.7 71.7 0 0 0-8.3-12.4 102 102 0 0 0-22.9-20.1 132.7 132.7 0 0 0-27.8-13.7q-7.4-2.6-15-4.5c-5.1-1.2-10.2-2.2-15.4-3a2.5 2.5 0 0 1 .6-5c21.6 1.5 43.2 7.6 62.3 18.9a106.8 106.8 0 0 1 25.9 21 81.9 81.9 0 0 1 10 13.8 65.5 65.5 0 0 1 6.5 16.1c.4 1.4.6 2.9.9 4.3s.4 3.2.6 4.6v8.8a52.1 52.1 0 0 1-4.9 17.2 68.6 68.6 0 0 1-9.6 14.7 89.8 89.8 0 0 1-12.3 11.9 128.7 128.7 0 0 1-28.7 17.4 154.4 154.4 0 0 1-31.7 10.3 151.2 151.2 0 0 1-16.6 2.5l-4.2.3-4.3.2h-8.4a118.3 118.3 0 0 1-16.8-2.1 124 124 0 0 1-16.3-4.6 137.3 137.3 0 0 1-15.5-6.6 147.7 147.7 0 0 1-14.5-8.4 160.3 160.3 0 0 1-13.4-9.9c-4.2-3.6-8.4-7.3-12.3-11.3a171.7 171.7 0 0 1-21-25.7 167.3 167.3 0 0 1-15.7-29.3l-1.6-3.9-1.4-3.9c-1-2.6-1.7-5.3-2.6-7.9s-.7-2.7-1.1-4-.7-2.7-1-4.1-1.2-5.4-1.6-8.3-.5-2.9-.7-4.2l-.5-4v-4.5l-.2-4.2v-8.4c0-2.8.3-5.6.6-8.4a135 135 0 0 1 7.6-32.6 161.5 161.5 0 0 1 14.7-29.9 190 190 0 0 1 19.9-26.4 236.9 236.9 0 0 1 23.6-22.9c2.1-1.7 4.2-3.5 6.3-5.2l6.5-5 6.7-4.8 6.8-4.6a277.8 277.8 0 0 1 28.5-16.2 250.9 250.9 0 0 1 30.3-12.6c2.6-1 5.2-1.7 7.8-2.5s5.3-1.5 7.9-2.3l4-1.1 4.1-.9 4.1-.9 4-.7 3.9-.7 1-.2h1.2l2-.3 8.2-1.1 8.2-.6 4.1-.3h4.1a196.3 196.3 0 0 1 32.9 2l8.2 1.3 8.1 1.7c2.7.5 5.3 1.3 8 2s5.3 1.3 7.9 2.2l7.8 2.5 7.7 2.8 3.8 1.5 3.8 1.6 3.8 1.6 3.7 1.7 7.4 3.5c2.5 1.2 4.8 2.5 7.3 3.8l3.6 1.9 3.5 2.1 7.1 4.1c9.3 5.7 18.2 12 26.9 18.6s16.9 13.7 24.8 21.2 15.5 15.2 22.7 23.3 14.1 16.5 20.6 25.2 12.6 17.7 18.3 27c2.8 4.7 5.6 9.3 8.2 14.2l2 3.6 1.8 3.6 1.8 3.6.5.9.3.5.2.5.9 1.9 3.4 7.4c.6 1.2 1.2 2.5 1.7 3.7l1.5 3.8 3.1 7.6c1 2.5 1.8 5.1 2.7 7.7l1.4 3.9c.5 1.3.9 2.6 1.3 3.9l2.3 7.8 1.2 3.9 1 4 1.9 8c.6 2.7 1.1 5.4 1.6 8l.8 4 .4 2 .3 2 1.2 8.1c.2 1.4.4 2.7.6 4.1l.4 4.1a294.8 294.8 0 0 1-.3 65.3l-1 8.1-1.3 8.1-.6 4c-.2 1.3-.5 2.7-.8 4l-1.6 8c-.5 2.7-1.3 5.3-1.9 7.9l-1 4c-.3 1.3-.6 2.6-1 3.9-1.5 5.2-2.9 10.5-4.6 15.6l-2.5 7.7-2.8 7.7-1.4 3.8-1.5 3.8-3.1 7.5c-1.1 2.5-2.2 5-3.3 7.4s-2.2 5-3.4 7.4c-2.4 4.9-4.7 9.8-7.4 14.5-5 9.6-10.7 18.9-16.5 28.1l-4.5 6.8-2.3 3.4-2.4 3.3-4.8 6.6-5 6.5c-3.3 4.3-6.8 8.5-10.2 12.7-1.7 2.1-3.6 4.1-5.4 6.1l-2.7 3-1.4 1.5-1.4 1.5c-3.8 4-7.5 8-11.3 11.7l-2.8 2.8-1.4 1.4-.4.4-.4.3-.8.7-6 5.5a344.1 344.1 0 0 1-51.9 39.3 357.4 357.4 0 0 1-58.3 28.9 424.8 424.8 0 0 1-62.2 18.6 640.4 640.4 0 0 1-63.9 10.3c-21.3 2.4-42.8 4.1-64.3 5s-43 .9-64.5.1a878.7 878.7 0 0 1-128.1-14.2h-.5l-.4-.2-220.6-76.5-5.4-1.9 1.4-5.6 36.2-140.2 2.3-8.8 7.4 5.3 34.2 24.6c11.3 8.3 22.8 16.1 34.5 23.7s23.7 14.7 35.8 21.5 24.5 13.3 37 19.3l9.5 4.4 9.5 4.3 9.6 4.1 9.7 3.9c3.2 1.3 6.5 2.5 9.7 3.7s6.5 2.5 9.8 3.5l9.9 3.4 9.9 3.1c13.3 4 26.7 7.6 40.3 10.4 6.8 1.5 13.6 2.6 20.4 3.9l10.3 1.5 5.1.7 5.2.5 10.3 1.1 10.4.7 5.2.3 5.2.2 10.4.3c6.9-.1 13.8 0 20.7-.5l10.4-.6 10.3-1 5.2-.5 5.1-.7 10.3-1.5 10.2-1.9 5.1-.9 5-1.2 10-2.3 10.1-2.8 5.1-1.4 1.3-.4.6-.2h.5l2.5-.8 9.9-3.2q19.7-6.7 38.7-15.2a392.4 392.4 0 0 0 37-18.8 354.1 354.1 0 0 0 65.7-49.9h.1l.2-.2 2.1-1.8 2.2-2 4.2-4.2c2.8-2.8 5.5-5.8 8.1-8.8a201 201 0 0 0 14.5-19 181.3 181.3 0 0 0 12.1-20.6l1.3-2.7 1.2-2.7c.8-1.8 1.7-3.6 2.4-5.5l2.2-5.5 2-5.6.5-1.4.4-1.4.9-2.8.9-2.8c.3-.9.5-1.9.7-2.9s1-3.8 1.4-5.8l1.1-5.8a141.8 141.8 0 0 0 2.1-23.6v-6l-.3-5.9v-1.5l-.2-1.5-.3-2.9c-.2-2-.4-3.9-.7-5.9l-1-5.8-.5-2.9-.7-2.9-1.4-5.8c-.2-1-.5-1.9-.8-2.8l-.9-2.8-1.7-5.6-2.2-5.8-1.1-2.9-.6-1.4v-.7l-.3-.6-1.2-2.6-1.3-2.5a127.3 127.3 0 0 0-13.2-19.4 164.1 164.1 0 0 0-34.8-32.2c-13-8.8-27.6-15.5-42.7-18.1a79.9 79.9 0 0 0-22.8-.7l-2.8.4-2.8.5-2.8.6-2.7.7-2.6.8-1.3.4-1.4.5-5.8 2.2a6.3 6.3 0 0 1-4.8-11.8z" fill="#31323d"></path></g></g><g id="item_h"></g><g clip-path="url(#kittyClipPath)"><g id="bodyFur"><clipPath id="furClipPath"><path d="M2200.5 2195.7c-43-29.4-132.4-61.7-179.8-75.5l-.8-.3a248.1 248.1 0 0 0 6.4-155.8l-187.6-610.4c17.6-34.9 61-110.9 113.2-125.9 0 0-88.7-56.5-124.3 14.3 0 0 21.7-65.9 51.6-64.7 0 0-53.7-13.5-94 1.8l-54.1-175.2a240.5 240.5 0 0 0-47.2-89.2l73.3-118.6c-16.9-8.5-120.8 34.6-150.3 57.8-9.4-4.7-43.8-16.3-53.8-19.8 23.8-76.5-17.6-127.4-17.6-127.4 5.8 45.5-30.4 65.4-30.4 65.4 38-87.2-138.7-174-138.7-174s16.3 57-35.1 100.5c-58.7 49.6-34.7 93-34.7 93s-33.8-9.4-31.4-41.6c-18.5 33.1-6.9 64.4 8.4 86.2-14.1 5.8-52.2 23.4-64.8 31.7l-2.7-5.1c-44.5-36.6-124.6-49.2-135.6-33.6l64.5 115.2a240.3 240.3 0 0 0-33 93.8l-31.8 167c-43.6-11.2-94.8 18.3-94.8 18.3 28.5-9 66.7 48.8 66.7 48.8-53-59-123.7 18.9-123.7 18.9 54.3.8 98.7 67.6 116.7 99l-115.9 609.3a248.9 248.9 0 0 0 12.6 117.5l-.6.3c-38.1 9.1-130.4 43.4-184.5 78.3-26.5 17.1-10.1 55.9 23.2 55.3l266.9-5.2q6.8 4.1 13.8 7.9l.2 3.4c.4 23.3-6.7 42.4-29.9 43.6-15.6.8-28.2 9.9-30.6 21.1-4.7 21.5 5.8 38.9 27.2 40.4l84.3 5c26.4 1.6 51.9-11.3 65.3-34.1a71.4 71.4 0 0 0 8.8-23.9l5-26.6h533.6l3.5 20.7a71.6 71.6 0 0 0 43.1 54.3 53.5 53.5 0 0 0 22.3 4l91.8-3c22-2.2 30.1-15.7 27.9-36.9-.7-6.9-6.2-24.5-24.5-25.5-15.8-.9-25.2-8.6-28.1-21.9a246.8 246.8 0 0 0 65.4-28.1l261.5 5.1c33.2.3 49.2-37.8 23.1-55.6z" fill="none"></path></clipPath><g clip-path="url(#furClipPath)"><path fill="#ffebe9" d="M18.2 11.6H2984.2V2977.46H18.2z"></path><path fill="#ffebe9" d="M724.1 562.8H2233.5V2386.89H724.1z"></path><path fill="#585666" d="M1198.3,2203.5c.9-22.6,1.7-43.6,10-71.8"></path><path fill="#585666" d="M1922.3,2254.2c-2.3,7.4,11.8,9.6,19.3,11.3a605.2,605.2,0,0,0,243.5,4.3c26.6-5,57-15.4,65.6-41.1,5.2-15.7.3-33.5-9.3-47s-23.5-23.3-37.6-32.1c-36.7-22.8-121.4-58.6-165.3-43-23,8.3-36.4,51.5-60.1,81.2C1958.2,2213.2,1929.3,2231.9,1922.3,2254.2Z"></path><path fill="#585666" d="M931.3,2117.4c17.9,52.1,45.2,87.9,97.9,118.8,5.4,3.2,3.6,14.1-.7,15.2l-76.4,20.7c-41.2,11.1-136.8-18.8-179.4-18.8s-49.7-27.3-33-55.4"></path><path fill="#585666" d="M1635.9,1787.5c-10.3-64.8-62.7-142.7-119.1-169.2-18.2-8.5-58.6-19.5-103.8-7.6-67.5,17.9-129.1,102.3-141.7,173.9l-86.6,492.8,254.5,38.3,275.3-34.9-42-252Z"></path><path fill="#585666" d="M1134.3,2160c-34.2,0-66.3-11-94.4-30.3.4,2.3.8,4.7,1.1,7.1,7.7,48.6,9.2,95.1,9.8,113.5,1.9,60.7-47.9,41.4-60.1,63.1-10.4,18.5,2.8,28.7,19.4,41.9s36.8,10.2,58.1,10.3c30.4,0,55.5,4.4,81.2-12s30.7-46.1,35.3-76.2l23.7-135.6A162,162,0,0,1,1134.3,2160Z"></path><path fill="#585666" d="M1843.9,2247.4c.8-16.7,5.8-55.3,17.6-97.3-27.2,17.9-58.1,27.9-90.8,27.9-28,0-54.6-7.4-78.8-20.7l17.6,114.4c3.9,30.2,8.5,60,33.8,76.9s50.5,13,80.9,13.6c21.2.4,41.3,3.8,58.2-9.1s30.3-22.8,20.3-41.5C1891,2289.6,1840.8,2308,1843.9,2247.4Z"></path></g></g><g id="shadow" style="mix-blend-mode:multiply"><defs><clipPath id="shadowClipPath"><path d="M2200.5 2195.7c-43-29.4-132.4-61.7-179.8-75.5l-.8-.3a248.1 248.1 0 0 0 6.4-155.8l-187.6-610.4c17.6-34.9 61-110.9 113.2-125.9 0 0-88.7-56.5-124.3 14.3 0 0 21.7-65.9 51.6-64.7 0 0-53.7-13.5-94 1.8l-54.1-175.2a240.5 240.5 0 0 0-47.2-89.2l73.3-118.6c-16.9-8.5-120.8 34.6-150.3 57.8-9.4-4.7-43.8-16.3-53.8-19.8 23.8-76.5-17.6-127.4-17.6-127.4 5.8 45.5-30.4 65.4-30.4 65.4 38-87.2-138.7-174-138.7-174s16.3 57-35.1 100.5c-58.7 49.6-34.7 93-34.7 93s-33.8-9.4-31.4-41.6c-30.3 36.3-14.3 67.9 1 89.7-14.1 5.8-44.7 19.9-57.4 28.2l-2.7-5.1c-44.5-36.6-124.6-49.2-135.6-33.6l64.5 115.2a240.3 240.3 0 0 0-33 93.8l-31.8 167c-43.6-11.2-94.8 18.3-94.8 18.3 28.5-9 66.7 48.8 66.7 48.8-53-59-123.7 18.9-123.7 18.9 54.3.8 98.7 67.6 116.7 99l-115.9 609.3a248.9 248.9 0 0 0 12.6 117.5l-.6.3c-38.1 9.1-130.4 43.4-184.5 78.3-26.5 17.1-10.1 55.9 23.2 55.3l266.9-5.2q6.8 4.1 13.8 7.9l.2 3.4c.4 23.3-6.7 42.4-29.9 43.6-15.6.8-28.2 9.9-30.6 21.1-4.7 21.5 5.8 38.9 27.2 40.4l84.3 5c26.4 1.6 51.9-11.3 65.3-34.1a71.4 71.4 0 0 0 8.8-23.9l5-26.6h533.6l3.5 20.7a71.6 71.6 0 0 0 43.1 54.3 53.5 53.5 0 0 0 22.3 4l91.8-3c22-2.2 30.1-15.7 27.9-36.9-.7-6.9-6.2-24.5-24.5-25.5-15.8-.9-25.2-8.6-28.1-21.9a246.8 246.8 0 0 0 65.4-28.1l261.5 5.1c33.2.3 49.2-37.8 23.1-55.6z" fill="none"></path></clipPath><linearGradient id="shadowGradient" x1="1713.27" y1="794.55" x2="1713.27" y2="927.94" gradientUnits="userSpaceOnUse"><stop offset="0" stop-color="gray"></stop><stop offset=".14" stop-color="#797979"></stop><stop offset=".35" stop-color="#646464"></stop><stop offset=".6" stop-color="#434343"></stop><stop offset=".89" stop-color="#141414"></stop><stop offset="1"></stop></linearGradient><linearGradient id="shadowGradient2" x1="1041.15" y1="888.73" x2="1175.15" y2="888.73" href="#shadowGradient" xlink:href="#shadowGradient"></linearGradient></defs><g clip-path="url(#shadowClipPath)"><path d="M968.2 1406.2S920.5 1826 892 1975.5c-31.7 166.5 17.2 278.2 79.2 278.2 49.7 0 81 .8 81 .8l-1.3-49c-5-88-29.1-150.8-52.6-176.8v-3.4a910.2 910.2 0 0 1 6.8-98.4c6.3-50.8 32.5-270.9 52.6-404.1l.2-1.3c4.1-26.2 20.1-82 14.2-132.2-3.7-31.6-27-67.9-52.3-87.2-23.4-17.9-58-30.9-102.8-11.2M979.5 1223.4c27-9.4 58.1-1.2 80.3 16.7 15.3 12.3 26.8 28.7 35 46.7 3.1 6.9-4.6 13.6-11 9.6-15.5-9.5-32.8-16.8-47.1-28.2-7-5.6-14.6-12.7-23.6-11.6M1263 761.6c.6.4.5-1.2-.2-.9s-.7 1.2-.6 1.9c5.5 37.5 28.1 72.1 59.8 92.7a4.4 4.4 0 0 1-1.9 8.1l-4.9.6c-4.9.6-9.9 1.2-14.6-.2-8.2-2.3-13.7-9.8-18.5-16.9s-38.9-70.3-43.3-76.8M1296.3 781.7a109.8 109.8 0 0 0 43.3 45.8 4.4 4.4 0 0 0 5.9-6.3 147.6 147.6 0 0 1-8.8-15.5c-6.3-12.3-12.4-25.5-10.7-39.2 1-8 4.6-15.4 8.8-22.2 8-13 18.4-24.4 27.6-36.6s17.2-25.9 19.4-41c1.7-11.7-.1-23.6-3.3-35a153 153 0 0 0-11-28.3c-.8-1.6-1.8-3.3-3.4-3.9a7.7 7.7 0 0 0-4-.1l-23.7 3.5M1507.8 766.2a204.1 204.1 0 0 1-22.2 44.1 4.4 4.4 0 0 0 5.5 6.5c15.1-6.8 28-18.5 38.8-31.3 7.5-8.9 14.4-18.8 16.9-30.1s.3-25-5.2-36M1226.5 2040.4c-24.3 147.7 54.3 178.3 68.5 181.6 86.5 15.5 223.8 8.8 268.5-7 41.8-14.8 129.9-58.5 108-189.5l43 256.8h-533.6zM1854.3 2157.4s29.9-91.4 66.3-124.9c-39.4 75 14.1 92.7 28.1 87.7 53.7-19.2 75-66.7 79.2-150l65.3 116.3s-55 256-204 214l-38.7-18.1z" fill="#7f7f7f" opacity=".2"></path><path d="M1781.2 799.5s-38-26-102 41.5l-33.7 40.5 56.1 46.5z" opacity=".4" fill="url(#shadowGradient)" style="mix-blend-mode:multiply"></path><path d="M1041.2 839.5s27.5-18.9 71.6-.8a122.7 122.7 0 0 1 47.5 35.2l14.9 17.9-37.7 54.9z" opacity=".4" fill="url(#shadowGradient2)" style="mix-blend-mode:multiply"></path><path d="M1064.2 1202.7l42-187s27-127.3 169.1-177.9l17.9 26.1c-81.5 23.6-139.4 72.8-167.7 196.6-6.6 28.9-34.5 154-34.5 154M1052.2 2254.4s-31.3-.8-81-.8" fill="#7f7f7f" opacity=".2"></path></g></g><g id="highlight" style="mix-blend-mode:overlay"><defs><clipPath id="highlightClipPath"><path d="M2200.5 2195.7c-43-29.4-132.4-61.7-179.8-75.5l-.8-.3a248.1 248.1 0 0 0 6.4-155.8l-187.6-610.4c17.6-34.9 61-110.9 113.2-125.9 0 0-88.7-56.5-124.3 14.3 0 0 21.7-65.9 51.6-64.7 0 0-53.7-13.5-94 1.8l-54.1-175.2a240.5 240.5 0 0 0-47.2-89.2l73.3-118.6c-16.9-8.5-120.8 34.6-150.3 57.8-9.4-4.7-43.8-16.3-53.8-19.8 23.8-76.5-17.6-127.4-17.6-127.4 5.8 45.5-30.4 65.4-30.4 65.4 38-87.2-138.7-174-138.7-174s16.3 57-35.1 100.5c-58.7 49.6-34.7 93-34.7 93s-33.8-9.4-31.4-41.6c-30.3 36.3-14.3 67.9 1 89.7-14.1 5.8-44.7 19.9-57.4 28.2l-2.7-5.1c-44.5-36.6-124.6-49.2-135.6-33.6l64.5 115.2a240.3 240.3 0 0 0-33 93.8l-31.8 167c-43.6-11.2-94.8 18.3-94.8 18.3 28.5-9 66.7 48.8 66.7 48.8-53-59-123.7 18.9-123.7 18.9 54.3.8 98.7 67.6 116.7 99l-115.9 609.3a248.9 248.9 0 0 0 12.6 117.5l-.6.3c-38.1 9.1-130.4 43.4-184.5 78.3-26.5 17.1-10.1 55.9 23.2 55.3l266.9-5.2q6.8 4.1 13.8 7.9l.2 3.4c.4 23.3-6.7 42.4-29.9 43.6-15.6.8-28.2 9.9-30.6 21.1-4.7 21.5 5.8 38.9 27.2 40.4l84.3 5c26.4 1.6 51.9-11.3 65.3-34.1a71.4 71.4 0 0 0 8.8-23.9l5-26.6h533.6l3.5 20.7a71.6 71.6 0 0 0 43.1 54.3 53.5 53.5 0 0 0 22.3 4l91.8-3c22-2.2 30.1-15.7 27.9-36.9-.7-6.9-6.2-24.5-24.5-25.5-15.8-.9-25.2-8.6-28.1-21.9a246.8 246.8 0 0 0 65.4-28.1l261.5 5.1c33.2.3 49.2-37.8 23.1-55.6z" fill="none"></path></clipPath><linearGradient id="highlightGradient" x1="1980.63" y1="2256.39" x2="1980.63" y2="1316.81" gradientUnits="userSpaceOnUse"><stop offset="0" stop-color="#fff" stop-opacity="0"></stop><stop offset=".72" stop-color="#fff"></stop></linearGradient><linearGradient id="highlightGradient2" x1="2116.32" y1="2248.97" x2="2116.32" y2="2113.28" href="#highlightGradient" xlink:href="#highlightGradient"></linearGradient><linearGradient id="highlightGradient3" x1="1044.74" y1="2253.08" x2="1044.74" y2="2117.39" gradientTransform="matrix(-1 0 0 1 1878.82 0)" href="#highlightGradient" xlink:href="#highlightGradient"></linearGradient><linearGradient id="highlightGradient4" x1="916.6" y1="1819.55" x2="1050.67" y2="1819.55" href="#highlightGradient" xlink:href="#highlightGradient"></linearGradient><linearGradient id="highlightGradient5" x1="1817.86" y1="1232.71" x2="1965.97" y2="1232.71" href="#highlightGradient" xlink:href="#highlightGradient"></linearGradient><linearGradient id="highlightGradient6" x1="1735.34" y1="1202.52" x2="1910.15" y2="1202.52" href="#highlightGradient" xlink:href="#highlightGradient"></linearGradient><linearGradient id="highlightGradient7" x1="1670.82" y1="1197.92" x2="1670.82" y2="834.22" href="#highlightGradient" xlink:href="#highlightGradient"></linearGradient></defs><g clip-path="url(#highlightClipPath)" opacity=".3"><path d="M1826.8 1487.5c65.3 196.3 115.7 361.1 143.2 482.9 46.1 204.7-81.2 286-81.2 286l61.1-35.5s63-74.8 72.5-107.6c20.8-71.9 139-33 117.2-147.7l-280.3-648.8s-61.3 84-32.5 170.7z" fill="url(#highlightGradient)"></path><path d="M1999.2 2162.4s113.2 21.1 98.4 83.6l92.6 3 43.3-6.5-4.3-68.5-206.8-60.7z" fill="url(#highlightGradient2)"></path><path d="M951.2 2166.5s-113.2 21.1-98.4 83.6l-92.6 3-43.3-6.5 4.3-68.5 206.8-60.7z" opacity=".7" fill="url(#highlightGradient3)"></path><path d="M1033.3 1497.2l-85.2 457.3s-53.5 175 102.2 279l.3 20.2s-124.5-57.2-133.5-215.2 97-653 97-653l30.2 20.7a729.5 729.5 0 0 1-11 91z" fill="url(#highlightGradient4)" style="mix-blend-mode:overlay"></path><path d="M1966 1233.5a109.2 109.2 0 0 0-70-1.9c-15.3 4.8-29.3 12.8-42.9 21.3-8.9 5.5-17.8 11.4-25.8 18.2a5.7 5.7 0 0 1-9.3-5.7v-.2c4.4-17.5 15.2-32.9 28.7-44.8s29.6-20.5 46.2-27.5" fill="url(#highlightGradient5)"></path><path d="M1910.2 1175.9a298.9 298.9 0 0 0-165.8 52.2c-5.4 3.7-11.7-3.1-7.7-8.3s5.9-7.2 8.9-10.8c6.6-8 13.5-16.1 22.4-21.3 5-2.9 10.5-4.9 15.5-8" fill="url(#highlightGradient6)"></path><path d="M1797.5 1175.5s-63.3-204-114.8-259.6c-20.7-36.8-78.6-66.4-129.5-81.7l-9 14.9s56.2 26.7 84.6 52.3c53.3 48 106.9 201.8 128.4 296.4l40.2-22.5" fill="url(#highlightGradient7)"></path></g></g><g id="bodyMask"><path fill="none" opacity=".2" d="M.49999452 3.09371682l2999.99543074-5.2359851 5.2359851 2999.99543074-2999.99543075 5.2359851z"></path><path d="M2200.5 2195.7c-43-29.4-132.4-61.7-179.8-75.5l-.8-.3a248.1 248.1 0 0 0 6.4-155.8l-187.6-610.4c17.6-34.9 61-110.9 113.2-125.9 0 0-88.7-56.5-124.3 14.3 0 0 21.7-65.9 51.6-64.7 0 0-53.7-13.5-94 1.8l-54.1-175.2a240.5 240.5 0 0 0-47.2-89.2l73.3-118.6c-16.9-8.5-120.8 34.6-150.3 57.8-9.4-4.7-43.8-16.3-53.8-19.8 23.8-76.5-17.6-127.4-17.6-127.4 5.8 45.5-30.4 65.4-30.4 65.4 38-87.2-138.7-174-138.7-174s16.3 57-35.1 100.5c-58.7 49.6-34.7 93-34.7 93s-33.8-9.4-31.4-41.6c-18.5 33.1-6.9 64.4 8.4 86.2-14.1 5.8-52.2 23.4-64.8 31.7l-2.7-5.1c-44.5-36.6-124.6-49.2-135.6-33.6l64.5 115.2a240.3 240.3 0 0 0-33 93.8l-31.8 167c-43.6-11.2-94.8 18.3-94.8 18.3 28.5-9 66.7 48.8 66.7 48.8-53-59-123.7 18.9-123.7 18.9 54.3.8 98.7 67.6 116.7 99l-115.9 609.3a248.9 248.9 0 0 0 12.6 117.5l-.6.3c-38.1 9.1-130.4 43.4-184.5 78.3-26.5 17.1-10.1 55.9 23.2 55.3l266.9-5.2q6.8 4.1 13.8 7.9l.2 3.4c.4 23.3-6.7 42.4-29.9 43.6-15.6.8-28.2 9.9-30.6 21.1-4.7 21.5 5.8 38.9 27.2 40.4l84.3 5c26.4 1.6 51.9-11.3 65.3-34.1a71.4 71.4 0 0 0 8.8-23.9l5-26.6h533.6l3.5 20.7a71.6 71.6 0 0 0 43.1 54.3 53.5 53.5 0 0 0 22.3 4l91.8-3c22-2.2 30.1-15.7 27.9-36.9-.7-6.9-6.2-24.5-24.5-25.5-15.8-.9-25.2-8.6-28.1-21.9a246.8 246.8 0 0 0 65.4-28.1l261.5 5.1c33.2.3 49.2-37.8 23.1-55.6z" fill="none"></path></g><g id="body"><path fill="#fff" stroke="#31323d" stroke-width="12.5" stroke-miterlimit="10" d="M1714.5 2282.4h-533.6" stroke-linecap="round"></path><path fill="none" stroke="#31323d" stroke-width="12.5" stroke-miterlimit="10" d="M1851.5 1395.4l174.8 568.6c39 137.9-45.2 275-175.8 309.9m-799.8-20.2c-89.2-47.1-145.7-146.2-131.5-254.1l106.8-561.2" stroke-linecap="round"></path><path fill="#31323d" d="M1228.6 2040.8c-1.7 15.3-3.8 30.4-6 45.6l-3.5 22.7-3.8 22.6c-2.6 15.1-5.4 30.1-8.1 45.2l-8.3 45.1-16.6 90.3a76.3 76.3 0 0 1-3.5 12.1 77.5 77.5 0 0 1-5.4 11.4 75.5 75.5 0 0 1-16 19.4 78.7 78.7 0 0 1-45.9 18.8l-6.3.2h-6.1l-11.5-.7-22.9-1.3-45.8-2.8h-4.7l-1.8-.3a44.1 44.1 0 0 1-6.7-1.7 35.7 35.7 0 0 1-12.3-7.3 34.7 34.7 0 0 1-8.3-11.7 40.4 40.4 0 0 1-3.1-13.5 50.7 50.7 0 0 1 1-13.2l.2-.8v-1.7l.3-1.1a26.9 26.9 0 0 1 1.5-3.6 30.2 30.2 0 0 1 4.1-6.2 37.9 37.9 0 0 1 11-8.8 45.9 45.9 0 0 1 12.7-4.5 49 49 0 0 1 6.6-.9l2.7-.2 2.1-.3a22 22 0 0 0 4.3-1.2 18.5 18.5 0 0 0 3.8-1.9c4.6-3 7.7-8.4 9.4-14.8a70.5 70.5 0 0 0 1.8-20.8l-.9-22.9-1.9-45.9c-.6-15.3-1.3-30.6-1.8-45.9v.5c-.6-5-1.3-9.9-2-14.9-.4-2.5-.8-4.9-1.2-7.4s-.9-4.9-1.4-7.3-1-4.9-1.6-7.3l-1.8-7.2q-1.9-7.2-4.4-14.2c-.8-2.3-1.7-4.6-2.6-6.9s-1.8-4.6-2.9-6.8l-1.5-3.4-1.6-3.3-1.7-3.3-1.8-3.3-1.8-3.2-1.9-3.2-4-6.3c-1.4-2.1-2.8-4.1-4.3-6.2l-2.2-3-2.3-3a2.2 2.2 0 0 1 3.4-2.9l5.4 5.6q2.6 2.9 5.1 5.9c1.7 2 3.3 4 4.8 6.1l2.3 3.2 2.2 3.2c1.5 2.2 2.9 4.3 4.2 6.6l2 3.4 1.9 3.4q1.9 3.4 3.5 7c1.1 2.4 2.2 4.7 3.2 7.2q3 7.2 5.4 14.7c1.6 5 3 10 4.2 15q.9 3.8 1.7 7.6c.5 2.5 1.1 5.1 1.5 7.6.9 5.1 1.7 10.2 2.4 15.3v.5c.9 15.3 1.6 30.6 2.4 45.8l2.3 45.8 1.1 22.9a94.4 94.4 0 0 1-.1 12.3 71.8 71.8 0 0 1-1.9 12.5 54.5 54.5 0 0 1-2 6.3 42.8 42.8 0 0 1-3.1 6.2 33.3 33.3 0 0 1-9.8 10.4 35.1 35.1 0 0 1-13.2 5.3l-3.5.5-3 .2a35 35 0 0 0-4.7.6 31.9 31.9 0 0 0-8.8 3.2 23.9 23.9 0 0 0-6.9 5.5 16.1 16.1 0 0 0-2.2 3.3 13 13 0 0 0-1.2 3.7 36.6 36.6 0 0 0-.7 9.6 26.2 26.2 0 0 0 2 8.7 20.4 20.4 0 0 0 4.9 6.9 21.4 21.4 0 0 0 7.3 4.3 30.1 30.1 0 0 0 4.4 1.1l1 .2h3.9l45.8 2.7 22.9 1.4 11.5.7h10.5a64.5 64.5 0 0 0 37.6-15.2 61.4 61.4 0 0 0 13.1-15.7 65 65 0 0 0 7.4-19.2l17.4-90.1 8.7-45.1c2.9-15 5.8-30 8.8-45l4.7-22.5 5-22.4c3.4-14.9 7-29.8 11-44.6a2.2 2.2 0 0 1 4.9.6z"></path><path fill="#31323d" d="M1095.2 2319.6h-.5l-1.7.2a18.6 18.6 0 0 0-5.8 2 22.5 22.5 0 0 0-6.7 5.5 30.2 30.2 0 0 0-2.9 4 38.9 38.9 0 0 0-2.4 4.6l-.5 1.2-.5 1.2-.5 1.2-.4 1.3c-.5 1.7-.9 3.4-1.3 5l-.5 2.4c-.2.8-.3 1.6-.4 2.4s-.4 3-.6 4.4-.2 2.6-.3 3.7-.1 2.1-.2 2.9v2.7a6.3 6.3 0 1 1-12.5-.6 6.9 6.9 0 0 1 .1-.8l.5-2.7c.2-.9.3-1.9.6-3.1s.5-2.6.9-4.1.8-3.1 1.3-4.8l.8-2.6.9-2.7c.7-1.8 1.4-3.7 2.3-5.5l.6-1.4.7-1.4.7-1.4.8-1.4a46.9 46.9 0 0 1 3.6-5.2 37.5 37.5 0 0 1 4.2-4.5 28.8 28.8 0 0 1 9.4-5.8 23.9 23.9 0 0 1 7.7-1.5h3.1a2.2 2.2 0 1 1-.5 4.8zm-42.5-4.7h-.6l-1.6.4-2.5.9-.7.3-.8.4-1.6.9-1.7 1.1-1.7 1.3-.9.7-.8.8-1.6 1.7-1.5 2-.7 1-.6 1.1-1.3 2.2-1.1 2.4c-.3.8-.7 1.6-1 2.4l-.8 2.5-.8 2.4-.6 2.5a42.3 42.3 0 0 0-1 4.7l-.6 4.3a35.4 35.4 0 0 0-.3 3.7l-.2 2.8-.2 2.5v.4a6.3 6.3 0 1 1-12.5-.8 6.9 6.9 0 0 1 .1-.8l.5-2.7.6-3.1c.3-1.2.4-2.5.9-4l1.3-4.7a51.3 51.3 0 0 1 1.8-5.2l1-2.7 1.3-2.7 1.3-2.7c.5-.9 1.1-1.8 1.6-2.7l1.7-2.6 1.9-2.4.9-1.2 1.1-1.1 2.1-2.1 2.2-1.8 1.1-.9 1.2-.7 2.2-1.4 2.2-1.1 2.1-.8 1-.4 1-.3a26.5 26.5 0 0 1 3.2-.7l2.2-.2h.8a2.2 2.2 0 1 1 .4 4.4zm621-289.7l2.2 9.4c1.4 6.1 3.4 15.1 5.8 26.6 1.2 5.7 2.5 12.1 3.9 19l4.4 22.5 4.8 25.6 5 28.4 23.3 135.3c1.1 6.1 2 12.8 3.6 17.8a63.3 63.3 0 0 0 7.2 15.7 65.1 65.1 0 0 0 25.9 23.4l4.1 1.9 1.1.4 1 .4 2 .7a45.4 45.4 0 0 0 8.4 1.7l4.3.3h4.6l10-.3 40.1-1.4 39.4-1.2 2.5-.3 1.2-.2.9-.2 1.9-.4 1.9-.6a21.7 21.7 0 0 0 6.5-3.5 17 17 0 0 0 4.3-5.4c.2-.6.6-1.1.7-1.7l.6-1.8a30.4 30.4 0 0 0 .8-3.9 37.8 37.8 0 0 0 .4-4.1v-2.1s0-1.4-.1-2.2l-.2-2.2v-.3a.3.3 0 1 1 0-.1v-1.6l-.2-.8-.2-.9c-.1-.6-.4-1.3-.6-1.9-1.7-5-4.7-9.3-8.4-11.7a17.3 17.3 0 0 0-6.4-2.3l-1.8-.2-2.6-.2h-1.2l-1.5-.2-2.9-.5a39.5 39.5 0 0 1-10.9-4.2 30.1 30.1 0 0 1-9.1-8 34 34 0 0 1-5.3-10.4 47.2 47.2 0 0 1-1.9-10.7c-.1-.9-.1-1.7-.1-2.6v-7.2l.2-9.1.8-35.4.2-8.6v-4.6l.3-4.2.3-4.2c.1-1.4.2-2.7.4-4.2l1-8.4a250.4 250.4 0 0 1 6.4-31.5 277 277 0 0 1 9.1-28l2.7-6.4c.9-2.1 1.7-4.2 2.7-6.2l2.8-5.9c.9-1.9 1.8-3.9 2.8-5.7l2.9-5.4 1.4-2.6 1.5-2.5 2.9-4.9c.9-1.6 1.8-3.2 2.8-4.7l5.6-8.7 5.4-7.7 2.6-3.5 2.5-3.2c1.6-2.1 3.1-4.1 4.6-5.8l4.1-4.9 3.5-4 6.6-7.1a2.2 2.2 0 0 1 3.4 2.8l-5.6 7.8c-3.6 5.1-8.8 12.6-14.9 22.5l-4.7 7.8-4.8 8.8c-.9 1.5-1.7 3.1-2.5 4.7l-2.5 4.9-1.3 2.5-1.2 2.6-2.5 5.4a290.9 290.9 0 0 0-17.7 50.6l-.9 3.6-.4 1.8-.4 1.8-1.5 7.4-.4 1.9-.3 1.9-.6 3.8-.6 3.9-.3 1.9-.2 1.9-.9 7.8c-.2 1.3-.2 2.7-.3 4.1l-.3 4.2-.3 4.2v12.5l-.5 35.4v15.8s0 1.4.1 2a33.7 33.7 0 0 0 1.4 7.5 20.3 20.3 0 0 0 3.2 6.2c2.7 3.6 6.9 5.8 12 6.9l1.8.3.9.2h1.2l2.2.2 3 .3a31.3 31.3 0 0 1 11.7 4.2 31.8 31.8 0 0 1 9 8.5 40.3 40.3 0 0 1 5.4 10.5c.3.9.6 1.8.8 2.8l.4 1.4.3 1.6v2.9l.2 2.7c.1.9.1 1.8.1 2.8s.1 1.8 0 2.8a52 52 0 0 1-.5 5.7 44.4 44.4 0 0 1-1.2 5.8l-1 2.9c-.3 1-.8 1.9-1.3 2.9a31.3 31.3 0 0 1-7.9 10.1 35.8 35.8 0 0 1-10.9 6l-2.8.9-3 .7-1.5.3-1.3.2-2.5.3h-5.7l-5 .2-10 .4-20.1.7-40.1 1.3-10 .3h-5.4l-5.6-.4a59.7 59.7 0 0 1-11-2.3l-2.7-.9-1.4-.5-1.2-.5-4.9-2.3a79.2 79.2 0 0 1-31.4-28.6 77.2 77.2 0 0 1-8.7-19.2l-.7-2.6-.3-1.3c-.1-.4-.2-.9-.3-1.3l-.5-2.3-.2-1.2v-1.4l-1.5-9.3-22-135.6-4.5-28.5-3.8-25.7-3.2-22.7c-1-7-1.8-13.4-2.5-19.3-1.5-11.6-2.5-20.8-3.2-27.1l-1-9.6a2.2 2.2 0 0 1 3.8-.6z"></path><path fill="#31323d" d="M1783.2 2307.4h3.2a34.8 34.8 0 0 1 8 1.7 33.5 33.5 0 0 1 5.1 2.1 34.2 34.2 0 0 1 5.3 3.3 37.9 37.9 0 0 1 5 4.5c.7.9 1.5 1.7 2.2 2.7l1 1.4 1 1.5a46.8 46.8 0 0 1 3.3 6.1 56.5 56.5 0 0 1 2.4 6.2c.4 1 .6 2 .9 3s.5 2 .7 2.9l.6 2.8.4 2.6c.3 1.7.4 3.2.6 4.6s.3 2.5.3 3.5l.2 3.1a6.3 6.3 0 0 1-12.5.8 6.4 6.4 0 0 1 0-.7v-.3l.2-2.7c.1-.9.1-1.9.1-3.1s.1-2.6 0-4v-2.3l-.2-2.4c-.1-.8-.2-1.7-.3-2.5s-.2-1.8-.4-2.6a47.1 47.1 0 0 0-1.3-5.3 38.1 38.1 0 0 0-2.1-5.2l-.6-1.3-.7-1.2c-.4-.8-1-1.6-1.5-2.3a30.5 30.5 0 0 0-3.5-4.1 29.3 29.3 0 0 0-8-5.5 29.5 29.5 0 0 0-6.6-2.2l-1.9-.3h-.7a2.2 2.2 0 0 1-.2-4.8zm50.6-3.2h3.2a34.8 34.8 0 0 1 8 1.7 33.5 33.5 0 0 1 5.1 2.1 34.2 34.2 0 0 1 5.3 3.3 37.9 37.9 0 0 1 5 4.5c.7.9 1.5 1.7 2.2 2.7l1 1.4 1 1.5a46.8 46.8 0 0 1 3.3 6.1 56.6 56.6 0 0 1 2.4 6.2c.4 1 .6 2 .9 3s.5 2 .7 2.9l.6 2.8.4 2.6c.3 1.7.4 3.2.6 4.6s.3 2.5.3 3.5l.2 3.1a6.3 6.3 0 1 1-12.5.1v-.3l.2-2.7c.1-.9.1-1.9.1-3.1s.1-2.6 0-4v-2.3l-.2-2.4c-.1-.8-.2-1.7-.3-2.5s-.2-1.8-.4-2.6a47.1 47.1 0 0 0-1.3-5.3 38 38 0 0 0-2.1-5.2l-.6-1.3-.7-1.2c-.4-.8-1-1.6-1.5-2.3a30.5 30.5 0 0 0-3.5-4.1 29.3 29.3 0 0 0-8-5.5 29.5 29.5 0 0 0-6.6-2.2l-1.9-.3h-.7a2.2 2.2 0 0 1-.2-4.8z"></path><path fill="none" stroke="#31323d" stroke-width="12.5" stroke-miterlimit="10" d="M931.3 2117.4c-38.1 9.1-130.4 43.4-184.5 78.3-26.5 17.1-10.1 55.9 23.2 55.3l280.4-5.5" stroke-linecap="round"></path><path fill="#31323d" d="M840.5 2200.1l-.7.2-2 .6-3.1 1-4 1.5-4.5 2.1a49.4 49.4 0 0 0-4.7 2.8 36 36 0 0 0-4.4 3.5 26.3 26.3 0 0 0-3.7 4.2l-.8 1.1-.7 1.2a21.4 21.4 0 0 0-1.1 2.4c-.2.4-.3.8-.4 1.2a8.9 8.9 0 0 0-.3 1.2 18.1 18.1 0 0 0-.4 2.4v3.6c0 .4.1.8.1 1.2a15.6 15.6 0 0 0 .3 2.2c.2.7.3 1.4.5 2.1a36.6 36.6 0 0 0 1.2 3.6 29.8 29.8 0 0 0 1.2 2.8l1.2 2.4.2.3a6.3 6.3 0 0 1-11.3 5.5l-.3-.7-1.1-3.1c-.4-1-.7-2.2-1.1-3.7a48 48 0 0 1-1-4.9c-.1-.9-.2-1.9-.3-2.9a24.9 24.9 0 0 1-.1-3.2v-1.7l.2-1.7c.1-.6.1-1.2.2-1.7l.4-1.8a27.7 27.7 0 0 1 1-3.5 16.1 16.1 0 0 1 .7-1.7l.8-1.7a30.5 30.5 0 0 1 2-3.2l1.1-1.5 1.2-1.4a34.5 34.5 0 0 1 5.4-4.9 43.4 43.4 0 0 1 5.8-3.6 56.1 56.1 0 0 1 5.7-2.6l5.2-1.8 4.4-1.2 3.5-.7 2.3-.3h.8a2.2 2.2 0 0 1 .8 4.4h-.1zm-47.5 2h-.6l-1.7.5a38.1 38.1 0 0 0-5.9 2.5 32.6 32.6 0 0 0-3.6 2.2 29.2 29.2 0 0 0-3.5 2.9 23.5 23.5 0 0 0-2.9 3.7 18.7 18.7 0 0 0-2 4.2 21.2 21.2 0 0 0-.6 2.2c-.1.8-.3 1.5-.3 2.3a24.7 24.7 0 0 0 .1 4.6 34.5 34.5 0 0 0 .8 4.3c.4 1.4.7 2.7 1.2 3.9l.6 1.7.7 1.5.6 1.3.6 1.1 1.1 2.1v.2a6.3 6.3 0 0 1-11.2 5.6l-.3-.8-.9-2.7-.5-1.4-.5-1.7-.5-1.9c-.2-.7-.3-1.4-.5-2.2s-.6-3.3-.8-5.1a44.7 44.7 0 0 1-.2-5.9 34.2 34.2 0 0 1 .8-6.3c.2-1.1.6-2.1.9-3.2a29.7 29.7 0 0 1 1.3-3.1 26.9 26.9 0 0 1 3.6-5.6 31 31 0 0 1 4.5-4.3 35.8 35.8 0 0 1 4.8-3 38.6 38.6 0 0 1 4.6-2 43.3 43.3 0 0 1 7.1-2l2-.3h.8a2.2 2.2 0 0 1 .8 4.4h-.4z"></path><path fill="none" stroke="#31323d" stroke-width="12.5" stroke-miterlimit="10" d="M2020.7 2120.2c47.5 13.8 136.8 46.1 179.8 75.5 26.1 17.8 10.1 55.9-23.2 55.3l-261.6-5.1" stroke-linecap="round"></path><path fill="#31323d" d="M2107.6 2193.7h.8l2.3.4 3.5.8 4.5 1.4 5.2 2a58.4 58.4 0 0 1 5.6 2.8 45.8 45.8 0 0 1 5.7 3.8 36.7 36.7 0 0 1 5.3 5.1l1.2 1.5 1.1 1.6a31 31 0 0 1 1.9 3.3c.3.6.5 1.2.8 1.7s.5 1.2.7 1.8l.6 1.8.3.9.2.9a26.4 26.4 0 0 1 .6 3.5 25.1 25.1 0 0 1 .2 3.4 42.1 42.1 0 0 1-.4 6.2 50.3 50.3 0 0 1-1 5c-.4 1.5-.7 2.8-1.1 3.7l-1.1 3.2a6.3 6.3 0 0 1-11.8-4.1l.3-.7.2-.3 1.2-2.4c.4-.8.7-1.7 1.2-2.8s.8-2.3 1.2-3.7a31.5 31.5 0 0 0 .8-4.4 15.7 15.7 0 0 0 .1-2.4 16.7 16.7 0 0 0-.1-2.5v-1.2l-.2-1.3c-.1-.4-.2-.8-.4-1.3a12.8 12.8 0 0 0-.4-1.3 21.8 21.8 0 0 0-1.1-2.5l-.7-1.2-.8-1.2a28.5 28.5 0 0 0-3.7-4.4 38.4 38.4 0 0 0-4.4-3.8 51.5 51.5 0 0 0-4.7-3l-4.5-2.3a66.6 66.6 0 0 0-7.1-2.9l-2-.6-.7-.2h-.1a2.2 2.2 0 0 1 .8-4.3zm47.5 2h.8l2.1.4a44.7 44.7 0 0 1 7.1 2.4 40.4 40.4 0 0 1 4.5 2.3 38.2 38.2 0 0 1 4.7 3.3 33.1 33.1 0 0 1 4.4 4.5 30 30 0 0 1 4.8 8.8c.4 1.1.6 2.2.9 3.2s.4 2.2.6 3.3.3 2.2.2 3.2.1 2.1 0 3.1l-.2 2.9c-.3 1.8-.5 3.6-.8 5.2l-.5 2.3-.6 2-.5 1.8-.5 1.4-.9 2.7a6.3 6.3 0 0 1-11.8-4.1l.3-.7v-.3l1.1-2.2.6-1.2.6-1.4.7-1.6.6-1.7c.5-1.2.8-2.6 1.2-4l.4-2.2c.2-.7.2-1.5.3-2.3s.1-1.5.1-2.3-.1-1.6-.1-2.4-.2-1.6-.3-2.4a20.2 20.2 0 0 0-.6-2.3 20.6 20.6 0 0 0-2-4.4 25.7 25.7 0 0 0-2.9-3.9 31.5 31.5 0 0 0-3.5-3.2 34.4 34.4 0 0 0-3.6-2.4 39.4 39.4 0 0 0-5.9-2.9l-1.7-.6-.6-.2h-.1a2.2 2.2 0 0 1 1.1-4.1z"></path><path fill="none" stroke="#31323d" stroke-width="12.5" stroke-miterlimit="10" d="M1839.7 1357.2l59.7 194.1m-115.6-375.8l-52.7-171.5a241 241 0 0 0-149.5-160.9l-26.5-8.9m-483.8 366l30.8-162a241 241 0 0 1 144.3-190.3l18.1-7.1 7.9-3.1M1011.8 1513l22.4-118" stroke-linecap="round"></path><path fill="#31323d" d="M1040.5 1407.7c-1.6-3.2-3.4-6.4-5.2-9.6s-3.6-6.3-5.5-9.5q-5.7-9.4-11.9-18.4a282.8 282.8 0 0 0-27.4-33.9c-10-10.4-21-19.9-33.1-27.1a104.1 104.1 0 0 0-9.3-4.9 86.7 86.7 0 0 0-9.7-3.7 66.7 66.7 0 0 0-20-3.2 6.2 6.2 0 0 1-4.6-10.4h.1l1.7-1.8 1.7-1.7 3.3-3.2c2.3-2.1 4.6-4.1 6.9-6.1a171.7 171.7 0 0 1 14.8-11.1 138.5 138.5 0 0 1 16.2-9.4 103 103 0 0 1 17.7-6.8 77.1 77.1 0 0 1 19.2-2.9 63.1 63.1 0 0 1 19.5 2.7 62.4 62.4 0 0 1 9.2 3.6 68 68 0 0 1 8.5 5 74.1 74.1 0 0 1 7.6 6 92 92 0 0 1 6.8 6.8l-9.9 7.6-3-4.2-3.2-4.2q-3.2-4.2-6.6-8.3a161.8 161.8 0 0 0-14.4-15.2 76.9 76.9 0 0 0-16.2-11.7 31.8 31.8 0 0 0-8.5-3 16 16 0 0 0-7.8.3 6.2 6.2 0 0 1-5-11.4l3.6-1.8 3.6-1.7 7.2-3.1q7.2-2.9 14.7-5.3a164.3 164.3 0 0 1 30.5-6.7 106.5 106.5 0 0 1 31.4.7c2.6.5 5.2 1.1 7.7 1.8s5 1.6 7.5 2.6a76.1 76.1 0 0 1 7.1 3.4 74 74 0 0 1 6.7 4.2 2.5 2.5 0 0 1-2.8 4.2 65.6 65.6 0 0 0-27.3-9.4 98.7 98.7 0 0 0-29.1 1.1 154.8 154.8 0 0 0-28.3 8.1q-6.9 2.6-13.5 5.8l-6.6 3.3-3.2 1.7-3 1.8-5-11.4a26.9 26.9 0 0 1 7-1.2 30.8 30.8 0 0 1 6.8.5 44.1 44.1 0 0 1 12 4.2 72.9 72.9 0 0 1 10.1 6.3 109.8 109.8 0 0 1 8.9 7.3 174.2 174.2 0 0 1 15.5 16.4q3.6 4.3 7 8.7l3.3 4.5 3.3 4.7a6.2 6.2 0 0 1-9.8 7.7h-.1a79.5 79.5 0 0 0-5.8-5.8 61.7 61.7 0 0 0-6.4-5 55.4 55.4 0 0 0-6.9-4.1 49.8 49.8 0 0 0-7.4-2.9 50.5 50.5 0 0 0-15.7-2.2 64.6 64.6 0 0 0-16 2.4 90.5 90.5 0 0 0-15.5 6 126 126 0 0 0-14.7 8.5 159.1 159.1 0 0 0-13.7 10.3c-2.2 1.8-4.3 3.7-6.4 5.7l-3.1 3-1.5 1.5-1.4 1.5-4.5-10.5a78.9 78.9 0 0 1 23.5 4.4 98.4 98.4 0 0 1 10.9 4.8 115.3 115.3 0 0 1 10.2 5.7c13.1 8.3 24.3 18.8 34.5 30a291.7 291.7 0 0 1 27.2 35.9q6.1 9.4 11.6 19.2 2.8 4.9 5.4 9.8c1.7 3.3 3.4 6.6 5 10.1a3.5 3.5 0 0 1-6.3 3.1zM1827 1370c1.4-3.9 2.9-7.6 4.5-11.4s3.3-7.4 5-11.1 3.5-7.3 5.3-11 3.7-7.2 5.7-10.8c3.9-7.2 8-14.2 12.3-21.1 2.1-3.5 4.4-6.9 6.7-10.2s4.6-6.7 7.1-10q7.3-9.9 15.4-19.2a212 212 0 0 1 17.4-17.7 145 145 0 0 1 20.1-15.3 96.8 96.8 0 0 1 23.5-10.7l-1.7 12-1.7-1-1.8-1-3.8-2-7.7-3.8a158.7 158.7 0 0 0-15.9-6.3 133.5 133.5 0 0 0-16.3-4.3 89.9 89.9 0 0 0-16.5-1.7 64.1 64.1 0 0 0-16 1.8 50 50 0 0 0-14.4 6.1 49.3 49.3 0 0 0-6.3 4.7 54.9 54.9 0 0 0-5.5 5.7 61.1 61.1 0 0 0-4.8 6.5 79 79 0 0 0-4.1 7.1v.2a6.8 6.8 0 0 1-12.4-5.3c.6-1.9 1.3-3.6 1.9-5.4l2.1-5.2q2.1-5.2 4.5-10.3a174.7 174.7 0 0 1 10.8-19.8 110.1 110.1 0 0 1 6.7-9.4 73.2 73.2 0 0 1 8.1-8.7 44.2 44.2 0 0 1 10.5-7.1 30.9 30.9 0 0 1 6.5-2.2 27 27 0 0 1 7-.6l-1.8 12.3-3.7-.9-3.8-.9-7.7-1.5q-7.7-1.4-15.6-2.3a182.9 182.9 0 0 0-31.4-.9 109.5 109.5 0 0 0-30.5 6 64.2 64.2 0 0 0-25.7 16.6 2.5 2.5 0 0 1-3.8-3.3 64 64 0 0 1 12.3-11.5 77.4 77.4 0 0 1 14.6-8.2 117.2 117.2 0 0 1 32.2-8.3 192.5 192.5 0 0 1 33.1-1q8.3.4 16.5 1.4l8.2 1.1 4.1.7 4.2.8a6.2 6.2 0 0 1-1.6 12.3h-.1a16 16 0 0 0-7.5 1.8 32 32 0 0 0-7.3 5.2 76.8 76.8 0 0 0-12.4 15.6 161.6 161.6 0 0 0-9.8 18.4q-2.2 4.8-4.2 9.7l-1.9 4.9-1.7 4.9-12.5-5.2a92.5 92.5 0 0 1 4.8-8.4 74.6 74.6 0 0 1 5.8-7.9 68.4 68.4 0 0 1 6.9-7.1 62.9 62.9 0 0 1 8-6 63.6 63.6 0 0 1 18.3-7.8 77.7 77.7 0 0 1 19.4-2.3 103.5 103.5 0 0 1 19 1.9 131.8 131.8 0 0 1 18.1 4.8 172.1 172.1 0 0 1 17.2 7l8.3 4.1 4.1 2.2 2 1.2 2.1 1.3a6.6 6.6 0 0 1-1.7 12 83.7 83.7 0 0 0-20.3 9.1 132.1 132.1 0 0 0-18.4 13.8c-11.6 10.3-21.9 22.2-31.4 34.8q-3.6 4.7-7 9.5c-2.3 3.2-4.5 6.5-6.7 9.8s-4.4 6.6-6.5 9.9l-6.3 10.1c-2.1 3.4-4.1 6.8-6.1 10.2l-6 10.4c-2 3.5-3.9 7-5.8 10.5s-3.8 7-5.6 10.5a3.5 3.5 0 0 1-6.6-2.8z"></path><path fill="none" stroke="#31323d" stroke-width="12.5" stroke-miterlimit="10" d="M1206.2 862.9c-44.5-36.6-124.6-49.2-135.6-33.6l64.5 115.2M1607 854c29.5-23.2 133.4-66.3 150.3-57.8L1684 914.8" stroke-linecap="round"></path><path fill="#31323d" d="M1292.2 863.7c-2-1.9-3.8-3.8-5.6-5.8l-5.2-6q-5.1-6.1-9.7-12.6a134.6 134.6 0 0 1-15.3-28.2 91.5 91.5 0 0 1-4.5-15.7 71.3 71.3 0 0 1-1.2-16.6 66.6 66.6 0 0 1 1-8.4 61.1 61.1 0 0 1 5.3-16 70.1 70.1 0 0 1 4.2-7.3 5 5 0 0 1 9.2 2.9v.3a27.6 27.6 0 0 0 1.7 11.9 25.3 25.3 0 0 0 6.9 9.6 39.8 39.8 0 0 0 10.7 6.6 57.2 57.2 0 0 0 6.1 2.2l3.2.9 1.6.3h1.4l-5.4 8.8-.4-.6-.3-.5-.5-.9-.9-1.7c-.6-1.1-1.1-2.3-1.6-3.4a53.2 53.2 0 0 1-2.4-7.1 57.1 57.1 0 0 1-1.9-14.8 66.9 66.9 0 0 1 6.6-28.4 90.6 90.6 0 0 1 7.1-12.5 115.2 115.2 0 0 1 8.7-11.2c3.1-3.5 6.3-6.9 9.7-10.1l5.2-4.7 2.5-2.2 1.3-1.1 1.2-1.1a109 109 0 0 0 8.8-9.1 103.6 103.6 0 0 0 7.6-10.1 93.9 93.9 0 0 0 6.2-10.9 90.9 90.9 0 0 0 4.7-11.7 95.1 95.1 0 0 0 4.5-24.7 97.8 97.8 0 0 0-.2-12.6c-.2-2.1-.4-4.2-.7-6.2s-.3-2-.5-3l-.3-1.5-.2-.7v-.8a6.3 6.3 0 0 1 9-7.2c4.7 2.3 9.1 4.7 13.6 7.2l13.3 7.6q13.2 7.8 25.8 16.3a372 372 0 0 1 48.2 38 223.3 223.3 0 0 1 21.1 22.8 140 140 0 0 1 17 26.6 97.3 97.3 0 0 1 5.7 15.1 77.3 77.3 0 0 1 2.8 16.2 68.3 68.3 0 0 1-.9 16.6 71.9 71.9 0 0 1-4.9 15.8l-9-8.2.7-.4.9-.6 1.7-1.2 3.4-2.7 3.2-2.9 3-3.1 2.8-3.3 1.3-1.7 1.2-1.8c.8-1.2 1.6-2.4 2.2-3.7l1-1.9 1-1.9.9-2 .8-2c.3-.7.5-1.4.7-2s.5-1.4.6-2l.6-2.1.5-2.1c.2-.7.3-1.4.4-2.1s.3-1.4.3-2.1.4-2.9.4-4.3.1-1.4.1-2.2v-2.2c.1-1.4-.1-2.9-.1-4.4s-.3-2.9-.4-4.4v-.4a6.2 6.2 0 0 1 5.7-6.7 6.3 6.3 0 0 1 5.4 2.4l.9 1.2.8 1.1 1.5 2.2 2.8 4.5c1.8 3 3.4 6.2 4.8 9.3a135.1 135.1 0 0 1 12.6 60.6 143.2 143.2 0 0 1-7.1 40.5c-.5 1.6-1.1 3.2-1.7 4.9l-1.8 4.8c-1.3 3.2-2.6 6.3-4.1 9.4s-3 6.1-4.6 9.1l-2.5 4.5-2.6 4.4a3.5 3.5 0 0 1-6.1-3.4l2.3-4.3 2.2-4.4c1.4-2.9 2.8-5.9 4.1-8.9s2.5-6 3.6-9.1l1.6-4.6c.5-1.6 1-3.1 1.4-4.7a134.1 134.1 0 0 0 5.3-38.2 124.2 124.2 0 0 0-13.5-55.3c-1.4-2.8-3-5.6-4.7-8.3l-2.6-3.9-1.3-1.9-.7-.9-.6-.8 11-4.7c.2 1.7.4 3.4.5 5.1s.2 3.4.2 5.2v2.6c0 .9-.1 1.7-.1 2.6s-.3 3.5-.5 5.2-.3 1.7-.4 2.6-.3 1.7-.5 2.6l-.6 2.6-.7 2.5c-.2.8-.5 1.7-.8 2.5s-.5 1.7-.9 2.5l-1 2.4-1.1 2.4-1.2 2.4-1.2 2.3c-.8 1.5-1.8 3-2.7 4.5l-1.5 2.2-1.6 2.1-3.3 4-3.6 3.8-3.8 3.5-4.1 3.3-2.2 1.5-1.1.7-1.3.8a6.4 6.4 0 0 1-9-8h.1a59.1 59.1 0 0 0 3.9-13 56.9 56.9 0 0 0 .7-13.5 72.8 72.8 0 0 0-7.4-26.6 127.3 127.3 0 0 0-15.4-24.1 210.6 210.6 0 0 0-19.9-21.5c-7.1-6.8-14.7-13.2-22.4-19.3s-15.8-11.9-24-17.5-16.6-10.9-25.2-16l-12.9-7.4c-4.3-2.4-8.8-4.8-13.1-6.9l8.9-7.4.3 1 .2.9.4 1.8.6 3.6s.6 4.7.8 7.1a110.4 110.4 0 0 1 .2 14.2 107.7 107.7 0 0 1-5.1 28 103.4 103.4 0 0 1-5.3 13.2 106.4 106.4 0 0 1-7.1 12.4 113 113 0 0 1-8.6 11.3 121.2 121.2 0 0 1-9.9 10.1l-1.3 1.2-1.3 1.1-2.6 2.2-4.9 5.1c-3.1 2.9-6.2 6-9 9.2a103.1 103.1 0 0 0-7.8 10 78.7 78.7 0 0 0-6.3 10.8 63.2 63.2 0 0 0-4.2 11.5 50.5 50.5 0 0 0-1.6 11.9 45.5 45.5 0 0 0 1.3 11.8 41.7 41.7 0 0 0 1.8 5.6l1.2 2.6.7 1.2.3.6.2.4.2.4a5.6 5.6 0 0 1-5.6 8.5l-1.1-.2-1-.2-1.9-.5-3.8-1.1a63 63 0 0 1-7.3-2.8 50.5 50.5 0 0 1-13.5-8.8 38.2 38.2 0 0 1-5.5-6.3 34.6 34.6 0 0 1-3.9-7.5 35.6 35.6 0 0 1-2-8.2 42.1 42.1 0 0 1-.1-8.2l9.2 3.2a60.1 60.1 0 0 0-3.7 6.1 52.5 52.5 0 0 0-2.9 6.5 53.1 53.1 0 0 0-1.9 6.8 57.2 57.2 0 0 0-1 7.1c-.7 9.6 1.1 19.4 4.5 28.7a126.5 126.5 0 0 0 13.7 26.8c2.8 4.2 5.8 8.3 9 12.3l4.9 5.9c1.7 1.9 3.4 3.8 5.1 5.5a3.5 3.5 0 0 1-4.8 5.1z"></path></g></g><g id="item_g"></g><g id="item_f"></g><g id="eye"><defs><linearGradient id="eyeColor1" x2="0%" y2="100%"><stop offset="0%" stop-color="#729100"></stop></linearGradient><linearGradient id="eyeColor2" x2="0%" y2="100%"><stop offset="0%" stop-color="#729100"></stop></linearGradient></defs><path d="M1300.2 1109c9.5 71.9-47.8 117.8-119.7 127.3s-130.9-21-140.4-92.9a131.2 131.2 0 0 1 260.1-34.4z" fill="#fff" stroke="#31323d" stroke-linecap="round" stroke-miterlimit="10" stroke-width="10"></path><circle cx="1169.3" cy="1131.3" r="72.4" fill="url(#eyeColor1)"></circle><circle cx="1170.3" cy="1131.3" r="53.4" fill="#31323d"></circle><circle cx="1189.5" cy="1086.6" r="29" fill="#fff"></circle><path d="M1543.4 1084.2c-10.6 80.2 45.9 136.8 126.1 147.4s153.8-28.8 164.4-109a146.5 146.5 0 0 0-126-164.4c-80.2-10.7-153.8 45.8-164.5 126z" fill="#fff" stroke="#31323d" stroke-linecap="round" stroke-miterlimit="10" stroke-width="10"></path><circle cx="1685.3" cy="1109.6" r="77" fill="url(#eyeColor2)"></circle><circle cx="1686.4" cy="1108.7" r="56.8" fill="#31323d"></circle><circle cx="1705.8" cy="1060" r="30.9" fill="#fff"></circle><path d="M1190.5 956.9c-43.7 46.6-89.1 59.9-154.1 52.6M1618.2 891.4c22.3-4.5 38-9.8 90-8.7 40.1.9 73.3 15 98.5 32.1" fill="none" stroke="#31323d" stroke-linecap="round" stroke-miterlimit="10" stroke-width="30"></path></g><g id="item_e"></g><g id="mouth"><g><path style="mix-blend-mode:multiply" fill="#595959" d="M1368.6 1437.1s12.6 65.9 78.6 64.9 83.5-74.6 83.5-74.6-34.7 39.8-72.8 40.3-89.3-30.6-89.3-30.6z" opacity=".2"></path><path fill="#31323d" d="M1534.5 1424.4a52.9 52.9 0 0 1-2.1 6 44 44 0 0 1-3.1 5.6 37.7 37.7 0 0 1-3.7 5.2 48.1 48.1 0 0 1-4.2 4.8 81.1 81.1 0 0 1-20.4 14.6 104.1 104.1 0 0 1-11.3 5.2c-3.9 1.5-7.8 2.8-11.8 3.9s-8 2.1-12.1 2.8l-6.1.9-6.2.7c-4.1.4-8.3.5-12.4.5s-8.3-.3-12.4-.7a103.5 103.5 0 0 1-12.4-2.1c-2-.4-4.1-1-6.1-1.6l-3.1-1-3-1.2a83.1 83.1 0 0 1-21.4-13.1 79.7 79.7 0 0 1-8.9-8.5 87.6 87.6 0 0 1-7.6-9.7 2.6 2.6 0 0 1 .8-3.5 2.4 2.4 0 0 1 3 .3h.1c2.8 2.6 5.8 5 8.8 7.3s6.2 4.3 9.4 6.3a89.5 89.5 0 0 0 20 9.1l2.6.8 2.6.6 5.4.9c3.6.6 7.3.9 11 1.2s7.4.2 11.1.2 7.4-.3 11.1-.7a152.3 152.3 0 0 0 43.3-10.4 100.9 100.9 0 0 0 19.4-10.5 55.2 55.2 0 0 0 15-15.8h.1a2.4 2.4 0 0 1 3.4-.8 2.5 2.5 0 0 1 1.2 2.7z"></path><path fill="#31323d" d="M1446.1 1228.4c0 10.9 0 21.8.4 32.6s1.4 21.2 4.5 31l1.3 3.6c.5 1.2.9 2.4 1.5 3.6a55.2 55.2 0 0 0 3.4 6.9 47.2 47.2 0 0 0 9.8 11.6 71.4 71.4 0 0 0 13.2 8.6c4.8 2.4 9.8 4.6 14.8 6.8a1.4 1.4 0 0 1 .8 1.9 1.5 1.5 0 0 1-1.8.9c-5.3-1.7-10.5-3.4-15.7-5.4a77.3 77.3 0 0 1-15.1-7.8 52.1 52.1 0 0 1-12.5-12.3 56.6 56.6 0 0 1-4.7-7.3c-.7-1.3-1.4-2.6-2-3.9s-1.3-2.6-1.8-4a95.4 95.4 0 0 1-5.1-16.5c-1.2-5.6-2-11.2-2.7-16.7-1.4-11.1-2.4-22-3.3-32.9a7.5 7.5 0 1 1 14.9-1.4c0 .3.1.5.1.7z"></path><path fill="#31323d" d="M1388.8 1338.6a161.1 161.1 0 0 0 14.8-9.4 95 95 0 0 0 13-11.3 50.1 50.1 0 0 0 9.3-13.8c.5-1.3 1-2.5 1.4-3.8s.7-2.6 1-4a73.7 73.7 0 0 0 1.3-8.4c1.4-11.3 1.3-23.1 1.4-34.9s-.1-23.7-.1-35.6a7.5 7.5 0 1 1 15 0v.7c-1.1 11.7-2 23.5-3 35.4s-2 23.8-4.5 35.9a74.3 74.3 0 0 1-2.3 9c-.4 1.4-.9 3-1.5 4.5s-1.4 3-2.1 4.4a54.7 54.7 0 0 1-11.7 14.8 100.9 100.9 0 0 1-14.7 10.8c-5.2 3.1-10.5 5.8-15.9 8.4a1.5 1.5 0 0 1-2-.7 1.5 1.5 0 0 1 .6-2z"></path><path fill="#31323d" d="M1418.5 1323.5a43.5 43.5 0 0 1 44.7-1s-19.4-14-24.4-46c0 0-2.3 36.3-20.3 47z"></path><path fill="#31323d" d="M1371.7 1203a14.9 14.9 0 0 1 2.3-16.1c8.2-9.4 26.4-23.8 61.9-26.8s53.2 8 61.9 16.1a14.8 14.8 0 0 1 3.8 15.9 20.8 20.8 0 0 1-17.2 13.7c-10 1.1-23.6 5.2-31.4 18.4a12.4 12.4 0 0 1-1.7 2.3l-.3.3a17.6 17.6 0 0 1-25.3.5s-8.2-11.8-35.2-11.8a20.8 20.8 0 0 1-18.7-12.1z"></path><path fill="#31323D" d="M1540.9 1255.1c14.3-2.5 28.7-4.6 43.1-6.2s28.9-2.6 43.4-3.1a494.9 494.9 0 0 1 86.9 4.2c28.7 4.2 57.1 11.3 83.9 22.3a267.4 267.4 0 0 1 73.6 45.1 264 264 0 0 0-74.6-42.8c-26.8-10.1-55.1-16.3-83.5-19.6a493 493 0 0 0-85.9-1.7c-14.3.9-28.5 2.3-42.7 4.3s-28.3 4.4-42.4 7.3a5 5 0 0 1-5.9-3.9 5.1 5.1 0 0 1 3.9-5.9z"></path><path fill="#31323D" d="M1715.3 1210.1c-12.9 0-25.8.5-38.7 1.4s-25.6 2.4-38.3 4.3-25.3 4.3-37.8 7.2-24.9 6.2-37.1 9.9a5 5 0 1 1-2.9-9.5h.3c12.7-3 25.4-5.7 38.3-7.7s25.7-3.7 38.6-4.8 25.9-1.7 38.8-1.8 25.9.2 38.8 1z"></path><path fill="#31323D" d="M1553.8 1275.2l5.9-.7 3-.3 2.9-.2h5.9l5.9.2h1.5l1.5.2 2.9.2 3 .3 2.9.5 5.8 1 5.7 1.3a143 143 0 0 1 22 7.6 188.2 188.2 0 0 1 20.3 10.7 220.3 220.3 0 0 1 35.8 28.6c5.4 5.3 10.6 10.8 15.6 16.6a221 221 0 0 1 13.9 18 201.7 201.7 0 0 0-14.9-17.2c-5.2-5.4-10.6-10.6-16.3-15.6a217.6 217.6 0 0 0-36.6-26.1 175.7 175.7 0 0 0-20.2-9.4 147.3 147.3 0 0 0-21.3-6.1l-5.4-.9-5.4-.7-2.8-.2-2.7-.2h-5.5l-5.4.2-2.7.2-2.7.3-2.7.2-2.7.5-5.3.9h-.4a5 5 0 1 1-1.7-9.9z"></path><path fill="#31323D" d="M1340.9 1281c-14.7-5.3-30.2-9.2-45.7-12.6s-31.2-5.8-47-7.7-31.7-3.1-47.6-3.5a420.9 420.9 0 0 0-47.7 1.4 323.4 323.4 0 0 0-47.1 7.7 218.8 218.8 0 0 0-44.8 16.4 150.2 150.2 0 0 0-38.7 27.6 133.8 133.8 0 0 0-27.2 39.2 135.2 135.2 0 0 1 26.3-40.1 154 154 0 0 1 38.5-29 219.6 219.6 0 0 1 44.9-17.7 308.3 308.3 0 0 1 47.5-9 411.6 411.6 0 0 1 48.3-2.7c16.2 0 32.3.7 48.4 2.2s32 3.7 47.9 6.7a343.8 343.8 0 0 1 47.3 11.7 5 5 0 0 1 3.2 6.3 5.1 5.1 0 0 1-6.3 3.2h-.2z"></path><path fill="#31323D" d="M1192.8 1221.4a268.4 268.4 0 0 1 79.5 1.9 275.1 275.1 0 0 1 39 9.9 269.2 269.2 0 0 1 37.3 15.5 5.1 5.1 0 0 1 2.2 6.7 5 5 0 0 1-6.8 2.2h-.2a266.1 266.1 0 0 0-72.5-29.3 268.5 268.5 0 0 0-78.5-6.9z"></path><path fill="#31323D" d="M1331.3 1302.6c-4-.9-8-1.7-12-2.2a100 100 0 0 0-12.2-.8 101.4 101.4 0 0 0-12.3.7c-4 .5-8.1 1.2-12.1 2.1-16.1 3.7-31.4 11-45.5 20.1a235.6 235.6 0 0 0-38.9 32.4c-5.9 6-11.6 12.3-17 18.9a252.6 252.6 0 0 0-15.2 20.5 254.2 254.2 0 0 1 14.2-21.3c5.1-6.8 10.5-13.5 16.2-19.9a236 236 0 0 1 37.9-34.7c13.9-10.1 29.5-18.4 46.4-23.2a109.7 109.7 0 0 1 12.9-2.9 96.8 96.8 0 0 1 13.2-1.4 98.4 98.4 0 0 1 13.3.2 99.6 99.6 0 0 1 13.2 1.8 5 5 0 0 1-1.8 9.8c-.1 0-.2 0-.2-.1z"></path></g></g><svg xmlns="http://www.w3.org/2000/svg" viewBox="0 0 3000 3000"><path fill="none" d="M0 0H3000V3000H0z"></path><path fill="#31323d" d="M1345.9,371.6c0,.8-.1,1.6-.1,2.3a31.9,31.9,0,0,1-19.2,32.7,4.1,4.1,0,0,0-2,2.6c-3.8,15.8-5.2,31.8-5.8,48a519.9,519.9,0,0,0,5.2,89.9c3,21,6.9,41.8,10.4,62.7.9,5-2.4,8.4-7.4,7.5-26.7-5-53.3-4-79.9.9a229.9,229.9,0,0,0-58.3,18.9c-24.7,11.8-46.7,27.2-64.6,48.1-1.2,1.5-2.3,3-3.5,4.4-3.1,3.9-8.1,3.4-10.4-1-3.7-7.1-7.3-14.2-11.2-21.2-22-39.9-46.1-78.4-76.4-112.7a224.5,224.5,0,0,0-30.3-29,4.7,4.7,0,0,0-3.2-.8,31.6,31.6,0,1,1,22.2-23.2c-.3,1.3-.6,2.2.7,3.2,18.6,14.8,38.1,28.1,60,37.6,7.6,3.2,15.3,4.6,23.4,2.3,13.4-3.7,22-12.4,25-26.1,3.4-15.7,3.5-31.7,2.7-47.7-1.1-21.9-4.4-43.6-8.8-65.1-1.3-6.4-2.7-12.7-4-19.2l-1.7-.3c-19.3-2-35.2-15.8-38.9-33.8-4-19.8,4.4-38.2,21.7-48a4.3,4.3,0,0,0,1-.9l10.6-3.7h1.1c18.2-3.3,36.4,4.9,45.5,20.4a43.2,43.2,0,0,1-3.6,49.9c-1,1.3-1.2,2.2-.4,3.6,4.6,9,9,18.1,13.7,27.1,10.5,19.6,22.1,38.6,35.9,56.2,7.5,9.5,15.5,18.7,25,26.3,11.1,9,23.4,10.4,36.4,4.6a32.5,32.5,0,0,0,15.4-14.8c11.8-21.5,18.9-44.6,24.2-68.4.4-1.6-.6-2.1-1.5-2.8-10.3-8.8-14.4-19.8-11-32.9s12.5-21.3,26.1-23.3,23.5,3.2,31.1,14.2l1.7,2.2Zm-92.8,207.6-.4.6c-2.7,4.1-5,8.4-8.1,12.2s-1.7,6.4-1.1,9.8l.6,1.8.5,1.3c.6.4,1.2,1.1,1.6,1.1l6.5-1.1a249.9,249.9,0,0,1,61.1-1.9c4.4.5,6.5-2,5.7-6.3-1.6-9.1-3.3-18.2-4.6-27.3-1.6-11.1-3-22.2-4.4-33.3-.2-1.2-.5-2.1-2-1.8h-3.1c-5.9-.3-11.5.9-17.1,2.5-8.3,2.4-16.2,5.6-23.3,10.5a54.5,54.5,0,0,0-13.6,13.5l5.3,3.2c2.7,1.7,3.2,3.8,1.6,6.6l-4.9,7.9Zm46.6-139.4c-.2.7-.5,1.5-.7,2.3l-.3.6-.7,2.4-.3.6c-.3.8-.5,1.6-.8,2.3l-.3.7c-.2.7-.5,1.5-.7,2.3l-.6,1.3-1.1,2.9-.6,1.3c-.4,1.2-.9,2.3-1.3,3.5l-1.5,3.2-6,12.5-1.5,3.1-1.5,1.8c-2.5,3.3-4.6,7-7.6,9.8a46.4,46.4,0,0,1-50.8,9.4c-9-4-15.9-10.9-22.6-17.9-3.7-3.7-7.1-7.5-10.7-11.3l-.3-.5c-.1-.3-.1-.7-.3-.9l-10.1-12.7-6.5-9.2-1.4-2.4-.7-.9-.4-.8-.7-.9-3.3-5.1c-4.9-8.4-9.7-16.8-14.6-25.1-.3-.5-1.2-.6-1.8-.8l-1.8.6-2.4.8-5,1.8v-.2c-3.1-8.7-6.1-17.3-9.1-25.9-1.9-5.4-1.9-5.3-7.2-3.5-2,.7-2.1,1.7-1.7,3.5,1.2,4.6,2.1,9.2,3.1,13.8s2.3,10.9,3.4,16.4c.1.5.3.9.4,1.4,1.3,9.3,2.6,18.6,3.7,28,2.8,22.4,3.6,44.9.2,67.4-1.1,7.6-3.1,14.9-7.5,21.5-8.1,12.2-19.5,19-33.9,20.9-10.2,1.3-19.6-1.5-28.6-5.7a219.6,219.6,0,0,1-31.7-17.8c-1.1-.8-2.3-1.3-3.1.6l-2.1,2.8c-1.7,1-1,2.2,0,3.2s2.7,2.8,4,4.3a492.7,492.7,0,0,1,38.1,49.2c2.9,4.3,5.7,8.8,8.5,13.3,0,2,.5,3.6,2.9,3.7l3.4,5.6c10.1,17.1,20,34.2,30,51.4a6.7,6.7,0,0,0,2,2.1c2.6,1.6,4.1,1.1,7-1.5,5.7-5.3,11.4-10.7,17.4-15.6s11.3-8.3,17-12.4a10.9,10.9,0,0,0,2.5-.4c1.4-.6,2.3-1.5,1-3,4.4-2.4,8.7-5,13.2-7.2,8.3-4.1,16.7-8.3,25.3-11.8,6.4-2.6,13.3-4.2,20-6.1s11.9-3.2,17.9-4.8c3-.8,3.3-1.2,2.4-4.4s-.6-3.9-.7-5.8a4.9,4.9,0,0,0-2.4-4.2c-6.2-3.9-12.2-7.9-18.2-11.9l-3.5-2.2c1.8,8.1,3.5,15.6,5.3,23.1.5,2.2.3,4-1.3,5.6l-33.6,11.9c-4.5-1.8-3.7-6.4-5.2-9.9l-25.5,9.8c-2.3,1-4.4,1.1-6.4-.4h0c-.4-1-.8-2.1-1.3-3.1-4.7-10.8-9.5-21.6-14.3-32.3l-6.9-15.4c-1.3-3-2.6-6-4-8.9s-1.7-4.4-.1-6.6l1.8-1.3,12.2-6.3,27.2-14.4c1.1-.6,1.7-1.2,1.3-2.7-1-4.4-1.8-8.9-2.7-13.4-.5-2.9.4-4.7,3.2-5.7l8.8-3.2,14.6-5c5.2-1.8,7.1-.7,7.9,4.9.5,3.5,1.2,7,1.8,10.4a1.9,1.9,0,0,0,.9-1.1c1.6-4.6,3.2-9.2,4.9-13.8,1-2.9,3-3.8,6-2.8l4.4,1.5,17.3,6.5,1.9.9,1.3,1.5c-.1,1.6.1,3.3-.4,4.7-1.9,5-4,9.8-6.1,14.7l-6.1,14.9,25.5,15c5.3-4.9,10.2-9.4,15-14a2.5,2.5,0,0,0,.8-1.4c0-1.7,0-3.4-.1-5.1-.5-7.5-.1-14.9,2.3-22,1.6-4.9,3.8-9.5,5.8-14.3l3.6-4.4c1.4-1.3,2.8-2.6,4.3-3.8l4.2-2.8a16.7,16.7,0,0,1,14.8.3l4,1.8.3.4,1.2.7.8.7,1.4,1.1,2,1.5c-.2-3.6-.2-6.8-.3-10a334.2,334.2,0,0,1,1.1-49,4.4,4.4,0,0,0-2.6-4.9l-1.6-1c-.7,0-1.8-.1-1.9.1a50.1,50.1,0,0,0-1.4,5.2h0l-.8,2.4ZM1207,603l2.6-1.1.7-1.5v-.7l-6.3-27.2c-.6-2.4-1-4.7,1.4-6.4s4.2-.4,6.1.9l17.6,11.6,9.9,6.5c3.4-5.3,6.6-10.4,9.8-15.6l-1.2-.7-32.9-19.4c-3.2-1.9-3.8-3.6-2.4-7l4.2-9.9,7.9-19-14.7-5.5c-.4,1.1-.6,1.9-1,2.8-2.7,7.1-5.5,14.3-8.4,21.4a4.7,4.7,0,0,1-5.2,3.1c-2.6-.4-3.6-2.3-4-4.6s-1.3-7.1-2-10.6-1.1-6.5-1.7-9.9l-11.6,4.1-5.9,2.1c.6,3.1,1.2,6.1,1.9,9.4,2.7-1.3,5.2-2.7,7.7-.6.7,2.3,1.3,4.6,1.9,7v1.1c.9,7,1.7,13.9,2.6,20.9.5,3.6-.3,4.9-3.8,6.3l-1.4.7c.7,3.7,1.4,7.3,2.2,11.2l7.5-3.2c2.7-1,4.5-.3,6,2.1l2,3.4c3.1,6.2,6.1,12.5,9.3,18.7,1.2,2.2,1.3,4.1-.1,6.1l-3.3,1.6-12.6,4.7c-1.9.7-2.4,1.7-1.2,3.6Zm-31.7-49.9c-.8-6-1.6-11.8-2.4-18.1l-42.8,22.8a2.2,2.2,0,0,0,.1.9l22.3,50.4c.7,1.5,1.5,1.5,2.9,1,12.9-5.1,25.9-10,38.8-15l2.3-1.2-8-15.4c-7.7,3.2-15.3,6.2-22.8,9.4-3.1,1.3-4.7,1-6.8-1.7l-12.2-15.6c-3.1-3.9-2.2-6.7,2.5-8.3Zm91.8-12.3c12.5-6.3,25.1-10.8,39-11,1.3,0,1.9-.6,1.7-2.1-.6-6.8-1.4-13.6-1.6-20.5a10.7,10.7,0,0,0-4.7-9c-9.3-7.2-16.9-6.6-24.3,2.6C1267.7,512.4,1265.8,526,1267.1,540.8Zm-144-219.6a8.7,8.7,0,0,0-5.4-5.8c-4.8-2-9.4-2.4-14.1.5a9.2,9.2,0,0,0-4.8,8.2c.1,3.7,1.5,6.9,5.1,8.2a31.8,31.8,0,0,0,10,2C1121.9,334.2,1125.7,328.7,1123.1,321.2Zm13.3,42.1c-4.5,1.4-8.8,2.8-13.3,3.9-9.7,2.5-19,1.5-27.5-4.2-5.2-3.4-9.7-7.4-11.5-13.7-1-3.1-2.2-6.2-3.1-8.8-2,9.6,4,23.5,15.8,30.1C1110.8,378.3,1127.7,374.4,1136.4,363.3ZM981.9,489.1h0l2.1-.8c2.5-1.1,4.2-3,4.2-6a5.7,5.7,0,0,0-4.2-5.7,18,18,0,0,0-6.9-.6c-4.2.4-6.9,4.7-6,9.1s4.3,5.9,8.7,4.7Zm343.2-114.3c4.2-1.4,5.7-4.5,4.2-8.7s-5.6-6.7-10.7-5c-3.6,1.1-5.8,5.7-4.5,9.3S1320.4,376.4,1325.1,374.8ZM997.9,503.4c-6.2,2.7-12.3,5-19,4.7s-12-3.9-17.4-8.3c2.9,9.1,10.2,13.9,17.8,14.4S995.3,509.5,997.9,503.4Zm296.9-126c-1,7.4,6,17.5,15.7,19.3,7.1,1.4,16.9-2.1,18.9-7.2C1310.5,394.5,1300.4,391.1,1294.8,377.4ZM1156.3,569c2.4,3.1,4.5,5.7,6.4,8.5s2.4,1.7,4,.9,3.1-1.3,4.6-2.2,1.4-1.5,1.3-2.1a76.3,76.3,0,0,0-1.7-8.3c-.1-.5-1.2-1.4-1.5-1.2C1165.1,565.9,1160.9,567.4,1156.3,569Z"></path><path fill="#31323d" d="M1226.1,703.5l-8,1.7c-14.9,3.9-30,6.9-45.5,7.2-6.7.1-13.4-.3-19.7-2.8-9.9-3.9-13.1-12.6-7.9-21.9a27.8,27.8,0,0,1,5-6.8c5.4-4.7,10.7-9.6,16.6-13.6,20.2-13.4,42.5-22.5,65.5-29.8,19.2-6.1,38.6-10.8,58.9-11.3a92.4,92.4,0,0,1,15.7,1.3,22.8,22.8,0,0,1,8,3c6.8,3.8,9.1,10.8,6,18s-6.9,10.4-11.7,14.5c-10.3,8.8-22,15.4-34.1,21.3-5.8,2.7-11.7,5.1-17.5,7.7a6,6,0,0,0-.8.8Zm-64.9-4.3h0l5,.8h2.6l1.1.2,14.7-1h1.1l6.3-1.1h1.1l1.9-.5h1.1l1.8-.6h1.1l1.8-.6h1.6l2.3-.8,2-.2,2.3-.8,2.1-.2,3.2-1.1,2-.3,4.6-1.5,3.4-.8,10.2-3.5,7.8-2.7,9.7-3.5,3.1-1.5,4.6-1.7,1.7-1.1,3.2-1.2,1.8-1,2.7-1,1.3-1,2.2-.8.8-.7,2.3-.9,1.3-.9,1.8-.7a6,6,0,0,0,.8-.8l1.8-.6.8-.8,1.4-.5.7-.8,1.4-.5.8-.7,3-1.7.8-.7.9-.4.8-.7,2.1-1.3.8-.8,5.4-4,.8-.8,1.2-.9.7-.8,3.1-3.1,1-1.4h.1c2.1-2,2.4-6.2.2-7.1s-4.9-.9-7.3-1.3h-.5c-1.3-2.1-3-2.1-5.8,0-1.3-2.2-2.7-.2-4.1-.2s-1.6-.9-2.4-.8c-16.2.9-32.1,4.4-47.6,9.2s-31.2,10.3-45.8,18.1c-8,4.3-15.9,9-23.8,13.6a21.3,21.3,0,0,0-3,3,29.8,29.8,0,0,0-11.2,11.1c-1.4,2.5.7,5.3,3.6,5.6h0Z"></path><path fill="#c9cad4" d="M1243.5,601.8c-.6-3.4-1.6-6.5,1.1-9.8s5.4-8.1,8.1-12.2l.5.2c.1.3.1.8.3.9a22.4,22.4,0,0,0,2.7,1.3c.4-.9,1.3-2,1-2.6s-1.6-1-2.5-1.3-.9.2-1.3.3h0l4.9-7.9c1.6-2.8,1.1-4.9-1.6-6.6l-5.3-3.2a54.5,54.5,0,0,1,13.6-13.5c7.1-4.9,15-8.1,23.3-10.5,5.6-1.6,11.2-2.8,17.1-2.5.1.4.3.9.4,1.4.7,6.2,1.5,12.4,2.1,18.6.2,1.7.3,3.5.4,5.2-1.6.1-2.6.8-2.4,2.4s1.5,2.1,3.1,1.9c.4,2.2.9,4.4,1.3,6.6,1.3,8.1,2.7,16.3,4,24.4.4,2.8-.2,3.4-3,3.2a249,249,0,0,0-42.3.2C1260.5,599.2,1252,600.6,1243.5,601.8Zm38.5-24.9c2.6-1.2,5.7-2.5,8.7-4.2,1.1-.7,2.4-2.5,2.2-3.6a5.4,5.4,0,0,0-3-3.3c-5.1-1.8-9.9-.1-14.8,1.2-3.4.8-4.2,3.8-5.8,6.2s-1.4,3.4-.1,4.7a5.6,5.6,0,0,0,4.1,1.2A74,74,0,0,0,1282,576.9Z"></path><path fill="#9698a1" d="M1121.1,553c-1.6,2.2-1,4.4.1,6.6s2.7,5.9,4,8.9c-2.6,2.3-5.2,4.6-7.9,6.8s-5.7,4.1-8.3,6.4c-.9.7-1.2,2.1-1.8,3.2,1.2.4,2.4,1.3,3.6,1.3l21.3-2.3c4.8,10.7,9.6,21.5,14.3,32.3.5,1,.9,2.1,1.3,3.1a17,17,0,0,1-2.2-1.5,56.7,56.7,0,0,0-20.6-12.8c-14.3-5-28.6-5.1-42.8.6-.8-1.4-1.5-2.9-2.4-4.2-4.8-7.1-9.7-14.2-14.6-21.2-.9-1.3-1.8-2.5-1.1-4.1,2.6-2.4,5.2-4.6,7.7-7.1s1.5-3.5-.8-4.9-4.6-2.4-6.8-3.7a15,15,0,0,1,3.7.4,52.3,52.3,0,0,0,18.3,3.6,57.6,57.6,0,0,0,8.2-1.1l1.4-.5h1.5l2.3-.8,2-.2,5.6-2,1.7-1.1.9-.3,1.4-.5a6,6,0,0,1,.8-.8l1.8-.6,1.2-1,1-.3Zm-34.9,30a3.2,3.2,0,0,0,2-3.9,3.7,3.7,0,0,0-4.2-2.2,3.9,3.9,0,0,0-2.1,4.4C1082.4,582.8,1084.5,583.6,1086.2,583Zm12.4-10.6.3,1c1,.4,2.3,1.3,3.1.9s1.2-1.8,1.7-2.7-2.1-1.6-3.1-1.6S1099.3,571.5,1098.6,572.4Zm1.3,9.3c-1.8-.5-3.1-1.4-3.8-1a3.4,3.4,0,0,0-1.5,2.7,1.8,1.8,0,0,0,2.9,1.5C1098.3,584.5,1098.8,583.3,1099.9,581.7Z"></path><path fill="#d4d5dd" d="M1205.7,599.5c1.4-2,1.3-3.9.1-6.1-3.2-6.2-6.2-12.5-9.3-18.7a15.7,15.7,0,0,0-.4-2.3c-4.4-12.8-8.9-25.6-13.4-38.3a8,8,0,0,0-1.3-1.9c-.6-2.4-1.2-4.7-1.9-7l-3.7-10.9,11.6-4.1c.6,3.4,1.2,6.6,1.7,9.9s1.3,7,2,10.6,1.4,4.2,4,4.6a4.7,4.7,0,0,0,5.2-3.1c2.9-7.1,5.7-14.3,8.4-21.4.4-.9.6-1.7,1-2.8l14.7,5.5-7.9,19-4.2,9.9c-1.4,3.4-.8,5.1,2.4,7l32.9,19.4,1.2.7c-3.2,5.2-6.4,10.3-9.8,15.6l-9.9-6.5L1211.5,567c-1.9-1.3-3.8-2.4-6.1-.9s-2,4-1.4,6.4l6.3,27.2v.7l-.7,1.5L1207,603Z"></path><path fill="#b9bac3" d="M1175.3,553.1l-26.1,9.2c-4.7,1.6-5.6,4.4-2.5,8.3l12.2,15.6c2.1,2.7,3.7,3,6.8,1.7,7.5-3.2,15.1-6.2,22.8-9.4l8,15.4-2.3,1.2c-12.9,5-25.9,9.9-38.8,15-1.4.5-2.2.5-2.9-1l-22.3-50.4a2.2,2.2,0,0,1-.1-.9l42.8-22.8C1173.7,541.3,1174.5,547.1,1175.3,553.1Z"></path><path fill="#9698a1" d="M1172.9,506l-8.8,3.2c-2.8,1-3.7,2.8-3.2,5.7.9,4.5,1.7,9,2.7,13.4.4,1.5-.2,2.1-1.3,2.7l-27.2,14.4-12.2,6.3a14.3,14.3,0,0,1,1.2-2.1c3.3-4.6,7.2-8.9,10-13.8,4.9-8.8,5.8-18.8,6.9-28.7,1.8-16.4,1-32.8,0-49.2a7.6,7.6,0,0,1,.6-2.6c.6,5.1,1.1,10.2,1.8,15.3.3,2.7,2.6,4,5.2,2.9l11.2-4.7,1.5,4.3-10.5,4.4c-1.8.6-3.3,1.6-2.5,3.6s2.4,1.7,4.1,1l10.6-4.2c.4,1,.7,2.1,1.1,3.1-2.2,1-4.4,2-6.5,3.2s-2.5,1.7-1.6,3.5,2.2,1.4,3.6.8l6.2-2.7C1168.1,492.5,1170.5,499.3,1172.9,506Zm-25.5-6.6c-1.5.6-1.9,2.1-1.4,3.8s3,3.3,4.6,2.7a2.9,2.9,0,0,0,1.6-3.9C1151.5,499.8,1149.6,498.6,1147.4,499.4Zm19.7-4.2c-.4-1-1.5-1.6-3.1-1.1a3.3,3.3,0,0,0-1.7,4.1,2.5,2.5,0,0,0,3.4,1.6C1167.2,499.3,1167.9,497.5,1167.1,495.2Z"></path><path fill="#acaeb7" d="M1270.6,501.5c-2,4.8-4.2,9.4-5.8,14.3-2.4,7.1-2.8,14.5-2.3,22,.1,1.7.1,3.4.1,5.1a2.5,2.5,0,0,1-.8,1.4c-4.8,4.6-9.7,9.1-15,14l-25.5-15,6.1-14.9c2.1-4.9,4.2-9.7,6.1-14.7.5-1.4.3-3.1.4-4.7h5.6a50.2,50.2,0,0,0,25.8-5.6C1266.9,502.6,1268.8,502.2,1270.6,501.5Zm-31.3,31.8c2.3-.9,3.2-2.7,2.4-5a2.9,2.9,0,0,0-4.1-1.9,4.4,4.4,0,0,0-2.7,5.3C1235.5,533.4,1237.1,534,1239.3,533.3Zm17-11.5c-.8-.3-1.9-1.3-2.8-1.2a2.7,2.7,0,0,0-2,3.6c.4,1.6,1.5,2.9,3.4,2.4S1256.5,524.1,1256.3,521.8Zm-3.6,11.6c-1.6-.5-2.7-1.2-3.5-.9s-.8,1.6-1.2,2.4,1.9,1.3,2.8,1.3S1251.9,534.7,1252.7,533.4Z"></path><path fill="#a9abb4" d="M1267.1,540.8c-1.3-14.8.6-28.4,10.1-40,7.4-9.2,15-9.8,24.3-2.6a10.7,10.7,0,0,1,4.7,9c.2,6.9,1,13.7,1.6,20.5.2,1.5-.4,2.1-1.7,2.1C1292.2,530,1279.6,534.5,1267.1,540.8Zm9.3-14.8c-.2-.4-.2-1-.5-1.3s-1.9-1.2-2.8-1.8a30.1,30.1,0,0,0-1.6,3.1c-.2.3.2.9.3,1.4s1.1,4.1,3.6,3.3S1276.9,527.8,1276.4,526Zm12-3.3a16.1,16.1,0,0,0,3.1,1.9c.3.1,1.6-1.3,1.6-2a19.1,19.1,0,0,0-.7-4.7c-.3-.7-1.4-1.6-1.9-1.5a2.9,2.9,0,0,0-2,1.7C1288.1,519.4,1288.4,520.8,1288.4,522.7Z"></path><path fill="#acaeb7" d="M1172.9,506c-2.4-6.7-4.8-13.5-7.1-20.2l3.5-1.8,3.7,10.5,3.2-4.4,11.4-15.8a153.5,153.5,0,0,0,21.6,21.8c1.5,1.2,2.8,2.7,4.2,4l-4.4-1.5c-3-1-5-.1-6,2.8-1.7,4.6-3.3,9.2-4.9,13.8a1.9,1.9,0,0,1-.9,1.1c-.6-3.4-1.3-6.9-1.8-10.4-.8-5.6-2.7-6.7-7.9-4.9Z"></path><path fill="#6a6b75" d="M1026.6,537.7l2.1-2.8a7.6,7.6,0,0,1,1.6.6c5.8,3.4,11.5,7.1,17.5,10.2,7.7,4,15.4,8.2,23.5,11.1,13.9,5,27.6,3.8,40.3-3.9a45.6,45.6,0,0,0,21.7-28.6c3.7-14.4,4.5-29.1,3.9-43.8s-2-28.5-3.4-42.8c-.7-6.5-2.1-13.1-3.2-19.6l1.8-.7a5.8,5.8,0,0,0,.5,1.4c.2,1.7.5,3.3.7,5l.3.9c.2,1.5.4,3,.5,4.5l.4.9v1.6l.3.9v1.6l.4.9v1.5l.3.9v1.6l.4.9c-.2.5-.6,1-.5,1.5.2,2.7.5,5.4.8,8.2a272.7,272.7,0,0,1,1.7,49.5c-.1,2,.1,4,.1,6.1v1.5l-.4,1.7V510a13.6,13.6,0,0,0-.4,1.7l-.3,5.3c-.2,1-.4,1.9-.5,2.8s-1.1.7-1.2,1.1c-.9,3-1.8,6-2.6,9.1-.2.4.3.9.5,1.4l-.3.6c-1.1,2.1-2.3,4.2-3.4,6.4s-1.2,1.9-2,2.8c-2.7,3.1-4.8,7-9,8.8l-4.6,3.2-.9.3-1.1,1.4-.9.4-2.3.8-.9.3c-5.7,2.1-11.5,4.2-17.6,4.5l-8.7.6-5-.9-8.2-2.8-2.5-1.2-1.3-.6-13.7-6.6-1.9-.9-3.9-2.3-1.3-.6-2.6-1.6-1.3-.6-2.6-1.7-1.9-.9-.6-.3-4.4-3.3-.9.7a10,10,0,0,0,.9,2.6c1.7,2.2,3.5,4.3,5.3,6.4a5.2,5.2,0,0,0,1.5.6l.5,1.3,1.2.7.7,1.8,2.1,1.4c1.9,2.7,3.7,5.5,5.9,8.1,4.3,5.2,8.7,10.2,13.1,15.3,0,.4-.3,1-.1,1.2,3.6,5.1,7.3,10.1,10.8,15.2s6,9.3,8.9,13.9l-1.4.6a3,3,0,0,0-.4-.8c-7.8-11.2-15.3-22.5-23.4-33.3-6.8-9.2-14.3-17.7-21.5-26.6C1031.3,543.4,1028.9,540.6,1026.6,537.7Z"></path><path fill="#2e2f39" d="M1079,607l1.4-.6,1.7-.8c14.2-5.7,28.5-5.6,42.8-.6a56.7,56.7,0,0,1,20.6,12.8,17,17,0,0,0,2.2,1.5h0a6.9,6.9,0,0,0,.7,1.5l10.1,13.5c.7,1.1,1.3,2.2,1.9,3.3s.4,2.4-1,3a10.9,10.9,0,0,1-2.5.4l-.6-1.4-.8-1.2-1.1-1.7a27.2,27.2,0,0,0-1.1-2.5c-10.7-16.7-25.5-26.8-45.7-28.4-7.8-.6-15.4.3-22.6,3.7l-1.3.6-1.8.7-1.8.6c-2.4-.1-2.9-1.7-2.9-3.7Z"></path><path fill="#d3d4dc" d="M1123.1,321.2c2.6,7.5-1.2,13-9.2,13.1a31.8,31.8,0,0,1-10-2c-3.6-1.3-5-4.5-5.1-8.2a9.2,9.2,0,0,1,4.8-8.2c4.7-2.9,9.3-2.5,14.1-.5A8.7,8.7,0,0,1,1123.1,321.2Z"></path><path fill="#9698a1" d="M1158.5,634.3l-10.1-13.5a6.9,6.9,0,0,1-.7-1.5c2,1.5,4.1,1.4,6.4.4l25.5-9.8c1.5,3.5.7,8.1,5.2,9.9-.9.6-1.7,1.4-2.6,1.9-3.3,1.8-6.7,3.3-9.9,5Z"></path><path fill="#4d4e58" d="M1130.6,418.1c1.1,6.5,2.5,13.1,3.2,19.6,1.4,14.3,2.9,28.5,3.4,42.8s-.2,29.4-3.9,43.8a45.6,45.6,0,0,1-21.7,28.6c-12.7,7.7-26.4,8.9-40.3,3.9-8.1-2.9-15.8-7.1-23.5-11.1-6-3.1-11.7-6.8-17.5-10.2a7.6,7.6,0,0,0-1.6-.6c.8-1.9,2-1.4,3.1-.6a219.6,219.6,0,0,0,31.7,17.8c9,4.2,18.4,7,28.6,5.7,14.4-1.9,25.8-8.7,33.9-20.9,4.4-6.6,6.4-13.9,7.5-21.5,3.4-22.5,2.6-45-.2-67.4-1.1-9.4-2.4-18.7-3.7-28-.1-.5-.3-.9-.4-1.4Z"></path><path fill="#a9abb4" d="M1218.4,607.9c1.6-1.6,1.8-3.4,1.3-5.6-1.8-7.5-3.5-15-5.3-23.1l3.5,2.2c6,4,12,8,18.2,11.9a4.9,4.9,0,0,1,2.4,4.2c.1,1.9.4,3.8.7,5.8l-16.5,4.2A31.3,31.3,0,0,1,1218.4,607.9Z"></path><path fill="#2a2b35" d="M1130.6,418.1l-1.4.5c-1.1-5.5-2.3-10.9-3.4-16.4s-1.9-9.2-3.1-13.8c-.4-1.8-.3-2.8,1.7-3.5,5.3-1.8,5.3-1.9,7.2,3.5,3,8.6,6,17.2,9.1,25.9l-6.4,2.5-1.9.6Z"></path><path fill="#515364" d="M1136.4,363.3c-8.7,11.1-25.6,15-39.6,7.3-11.8-6.6-17.8-20.5-15.8-30.1.9,2.6,2.1,5.7,3.1,8.8,1.8,6.3,6.3,10.3,11.5,13.7,8.5,5.7,17.8,6.7,27.5,4.2C1127.6,366.1,1131.9,364.7,1136.4,363.3Z"></path><path fill="#767780" d="M1218.4,607.9a31.3,31.3,0,0,0,4.3-.4l16.5-4.2c.9,3.2.6,3.6-2.4,4.4-6,1.6-12,3.1-17.9,4.8s-13.6,3.5-20,6.1c-8.6,3.5-17,7.7-25.3,11.8-4.5,2.2-8.8,4.8-13.2,7.2-.6-1.1-1.2-2.2-1.9-3.3l13.8-7.6c3.2-1.7,6.6-3.2,9.9-5,.9-.5,1.7-1.3,2.6-1.9Z"></path><path fill="#acaeb7" d="M1301.5,492.6l-4-1.8a16.7,16.7,0,0,0-14.8-.3c.2-.6.1-1.3.4-1.8,6.4-8.9,10.9-18.8,14.9-28.9a21.9,21.9,0,0,1,1.8-3.3c.6.6.9.8.9,1.1C1301,469.3,1301.2,480.9,1301.5,492.6Z"></path><path fill="#a0a1ab" d="M1308.3,559.6c-.1-1.7-.2-3.5-.4-5.2-.6-6.2-1.4-12.4-2.1-18.6-.1-.5-.3-1-.4-1.4h2l.2.5q4.2,29.9,8.6,59.7c.7,4.8-.4,5.7-5.3,5.6-11.1-.3-22.3-.9-33.4-.3s-22.3,2.5-33.4,3.8l-.6-1.8c8.5-1.2,17-2.6,25.5-3.5a249,249,0,0,1,42.3-.2c2.8.2,3.4-.4,3-3.2-1.3-8.1-2.7-16.3-4-24.4-.4-2.2-.9-4.4-1.3-6.6C1310.7,561.8,1310.6,561.3,1308.3,559.6Z"></path><path fill="#b9bac3" d="M1181.4,532.2a8,8,0,0,1,1.3,1.9c4.5,12.7,9,25.5,13.4,38.3a15.7,15.7,0,0,1,.4,2.3l-2-3.4c-1.5-2.4-3.3-3.1-6-2.1l-7.5,3.2c-.8-3.9-1.5-7.5-2.2-11.2l1.4-.7c3.5-1.4,4.3-2.7,3.8-6.3-.9-7-1.7-13.9-2.6-20.9Z"></path><path fill="#93959f" d="M1134.3,416.8l6.4-2.5v.2c1.2,3.6,2.5,7.3,3.8,11l-3.7,1.1c-1.9.6-3,1.8-2.7,4s.3,1.9.4,2.9l3,21.8a7.6,7.6,0,0,0-.6,2.6c1,16.4,1.8,32.8,0,49.2-1.1,9.9-2,19.9-6.9,28.7-2.8,4.9-6.7,9.2-10,13.8a14.3,14.3,0,0,0-1.2,2.1l-1.8,1.3-5.2,2.2a5.5,5.5,0,0,1,1.2-1.4,43.4,43.4,0,0,0,11.8-11.6c1.5-2,2.3-4.5,3.4-6.8l1.2-2.5c1-1.9,2.3-3.7,2.8-5.7,1-3.7,1.5-7.4,2.2-11.1l-.2-.5c.3-1.3.5-2.6.7-3.9v-1.5a8.4,8.4,0,0,0,.9-2.3c.5-9.7.9-19.4,1.3-29.1a15.3,15.3,0,0,0-.7-2.9l-.3-.9c.2-.5.8-.9.7-1.4-.1-4.3-.4-8.6-.6-12.8,0-.3-.5-.5-.7-.7l-.3-.9v-1.1l-.3-.9v-1.1l-.3-.9.2-1.1-.4-.9.2-1.1-.3-1v-1l-.3-1V448l-.3-.9c.1-1.2.1-2.5.2-3.7l-.3-.9-.5-1.4-.3-.9v-1.1l-.5-1.4v-1.6l-.3-.9v-1.5l-.4-1v-1.5l-.3-.9v-1.1l-.5-1.4v-1.6l-.3-.9v-1.5l-.5-1.4v-1.6l-.5-1.4.4-1.7Z"></path><path fill="#565761" d="M1080.1,611.4l1.8-.6c3,4.7,6.1,9.4,8.9,14.2,5,8.4,9.9,16.8,14.8,25.2,3.2,5.5,6.2,11.2,9.4,16.7,1.6,2.7,4.4,2.7,6.5.4a16.6,16.6,0,0,1,1.8-1.9c6.9-6,13.7-12,20.8-17.7,3.8-3,8.1-5.4,12.2-8.1l.6,1.4c-5.7,4.1-11.6,7.9-17,12.4s-11.7,10.3-17.4,15.6c-2.9,2.6-4.4,3.1-7,1.5a6.7,6.7,0,0,1-2-2.1c-10-17.2-19.9-34.3-30-51.4Z"></path><path fill="#5b5c67" d="M1308.5,534.3c1.5-.3,1.8.6,2,1.8,1.4,11.1,2.8,22.2,4.4,33.3,1.3,9.1,3,18.2,4.6,27.3.8,4.3-1.3,6.8-5.7,6.3a249.9,249.9,0,0,0-61.1,1.9l-6.5,1.1c-.4,0-1-.7-1.6-1.1,2.9-.6,5.7-1.3,8.6-1.7,19.1-2.6,38.2-3.8,57.4-1.9,6.7.6,7.9-1,6.8-7.6-2.4-14.7-4.6-29.5-6.9-44.2C1309.8,544.5,1309.2,539.4,1308.5,534.3Z"></path><path fill="#2a2b35" d="M1132.1,583.9l-21.3,2.3c-1.2,0-2.4-.9-3.6-1.3.6-1.1.9-2.5,1.8-3.2,2.6-2.3,5.6-4.2,8.3-6.4s5.3-4.5,7.9-6.8Z"></path><path fill="#d3d4dc" d="M981.9,489.1l-2.1.7c-4.4,1.2-7.8-.7-8.7-4.7s1.8-8.7,6-9.1a18,18,0,0,1,6.9.6,5.7,5.7,0,0,1,4.2,5.7c0,3-1.7,4.9-4.2,6l-2.1.8Z"></path><path fill="#d3d4dc" d="M1325.1,374.8c-4.7,1.6-9.5-.3-11-4.4s.9-8.2,4.5-9.3c5.1-1.7,9.1.2,10.7,5S1329.3,373.4,1325.1,374.8Z"></path><path fill="#515364" d="M997.9,503.4c-2.6,6.1-9.7,11.3-18.6,10.8s-14.9-5.3-17.8-14.4c5.4,4.4,10.6,8.1,17.4,8.3S991.7,506.1,997.9,503.4Z"></path><path fill="#80818b" d="M1308.5,534.3c.7,5.1,1.3,10.2,2,15.2,2.3,14.7,4.5,29.5,6.9,44.2,1.1,6.6-.1,8.2-6.8,7.6-19.2-1.9-38.3-.7-57.4,1.9-2.9.4-5.7,1.1-8.6,1.7a11.2,11.2,0,0,0-.5-1.3c11.1-1.3,22.2-3.2,33.4-3.8s22.3,0,33.4.3c4.9.1,6-.8,5.3-5.6q-4.4-29.8-8.6-59.7l-.2-.5Z"></path><path fill="#51525d" d="M1190.1,470.6c3.6,3.8,7,7.6,10.7,11.3,6.7,7,13.6,13.9,22.6,17.9a46.4,46.4,0,0,0,50.8-9.4c3-2.8,5.1-6.5,7.6-9.8l1.5-1.8.3.9c-.3,1-.7,2-1,3s-.1,1-.1,1.5l-.4.2-1.2.9-1.1,1.4-.7.8a17.1,17.1,0,0,1-1.1,1.4h0l-2.6,3-1.4.5-3.8,3.9-.9.4-2.5,1.8-.9.4-1.2.9-1.4.5c-1.2-.1-2.5-.3-2.6,1.4l-5.7,1.6-2.8.9-1.3.5h-1.6l-.9.3h-1.6l-.9.3-5.9-.5-1.4.4-5-.8h-1.1l-1.2-.6h-1.5l-1.8-.5-1.2-.5-1.7-.5-7.5-3.6-1.4-1.1-.7-.3-1.4-1-1.6-1.5-1.2-.6h0l-2.2-1.9-.8-.7c-2.7-2.8-5.4-5.7-8.2-8.5-.2-.2-.7-.2-1.1-.2l-2.1-2.9-2-1.4-1.4-2.6-3-2.6-1.1-1.7Z"></path><path fill="#515364" d="M1294.8,377.4c5.6,13.7,15.7,17.1,34.6,12.1-2,5.1-11.8,8.6-18.9,7.2C1300.8,394.9,1293.8,384.8,1294.8,377.4Z"></path><path fill="#2a2b35" d="M1156.3,569c4.6-1.6,8.8-3.1,13.1-4.4.3-.2,1.4.7,1.5,1.2a76.3,76.3,0,0,1,1.7,8.3c.1.6-.7,1.7-1.3,2.1s-3.1,1.4-4.6,2.2-2.8.7-4-.9S1158.7,572.1,1156.3,569Z"></path><path fill="#4d4e58" d="M1079,607l-1.8.7c-2.8-4.5-5.6-9-8.5-13.3a492.7,492.7,0,0,0-38.1-49.2c-1.3-1.5-2.8-2.8-4-4.3s-1.7-2.2,0-3.2c2.3,2.9,4.7,5.7,7.1,8.6,7.2,8.9,14.7,17.4,21.5,26.6,8.1,10.8,15.6,22.1,23.4,33.3A3,3,0,0,1,1079,607Z"></path><path fill="#a0a1ab" d="M1301.5,492.6c-.3-11.7-.5-23.3-.8-35,0-.3-.3-.5-.9-1.1a21.9,21.9,0,0,0-1.8,3.3c-4,10.1-8.5,20-14.9,28.9-.3.5-.2,1.2-.4,1.8l-4.2,2.8v-1.4l.3-.7,1.9-2.1c1.5-1.6,3.6-2.7,3.3-5.4h0l1.8-2.2-.3-.9a23.3,23.3,0,0,1,1.7-2.6c2.5,0,2.1-2,2.4-3.5l.3-2.2,1.2-2.5,1.5-1.6c1.2-1.3,2.8-2.5,1.5-4.6.3-1,.7-2,1-3l.9-.3c.4-1,.7-2,1-3v-1.5l1-.4c1.1-.7,1.8-1.5.5-2.7l.6-1.3,2.8-1.4c.2,1.6.5,3,.6,4.5V458a7.8,7.8,0,0,0,.5,1.4,7.3,7.3,0,0,0-.7,2.4c0,9.2.2,18.4.2,27.6a15.3,15.3,0,0,1-.7,3.6Z"></path><path fill="#767780" d="M1299.1,451.4l-.6,1.3-.9,1.8-.6,1.3v1.5l-1.5,1.6-.4,1.7c-.3,1-.7,2-1,3l-2,3.3-1,2.9-1.2,2.5-1.7,2.7-1,3a23.3,23.3,0,0,0-1.7,2.6l-.9.3c-.2-.4-.3-.9-.5-1.3l2.1-4.4,2.2-3.9,1.2-2.5,1.7-4.2,2.4-5.1.4-1.6,1.5-3.2.2-1.1c.5-1,1-2.1,1.4-3.1a.6.6,0,0,0-.1-.4l1.2-2.6a.6.6,0,0,1-.1-.4,8,8,0,0,0,1.3-1.9c1.1-2.9,2-5.8,3.2-8.7.4-1,1.5-1.6,2.3-2.5l.7.5c.1,2.1.1,4.2.1,6.3-.3,11.9-.7,23.7-.9,35.6-.1,6.3.2,12.7.3,19.1l-1.4-1.1v-1.5l-.3-.9.3-6.4-.6-1.9a3.5,3.5,0,0,0,.6-1.4c0-3.5-.1-7.1-.2-10.7-.2-.9-.3-1.9-.5-2.9s.7-.6.7-.9V456l-.4-1.4c.2-.3.7-.6.7-.9l.3-12.6c-2.3.4-4.4,4.1-4.7,7.5Z"></path><path fill="#5b5c67" d="M1305.2,495.5c-.1-6.4-.4-12.8-.3-19.1.2-11.9.6-23.7.9-35.6,0-2.1,0-4.2-.1-6.3l-.7-.5c-.8.9-1.9,1.5-2.3,2.5-1.2,2.9-2.1,5.8-3.2,8.7a8,8,0,0,1-1.3,1.9,7.8,7.8,0,0,1-.5-1.4l.3-.6a21.7,21.7,0,0,1,.7-2.4l.3-.6c.2-.8.5-1.6.7-2.3h0l.8-2.4h0l1.6-2.5,1.7-2.8,1.6,1a4.4,4.4,0,0,1,2.6,4.9,334.2,334.2,0,0,0-1.1,49c.1,3.2.1,6.4.3,10Z"></path><path fill="#acaeb7" d="M1144.6,425.5c-1.3-3.7-2.6-7.4-3.8-11l5-1.8,12.6,21.6c1.3,2.2,3,4.2,4.5,6.3l-1.2.9-7.9-12.2C1150.5,424.1,1150.5,424.1,1144.6,425.5Z"></path><path fill="#8e9099" d="M1213.4,500.1c-1.4-1.3-2.7-2.8-4.2-4a153.5,153.5,0,0,1-21.6-21.8v-.4l.7-.8.3-.2,16.8,17.6a5.2,5.2,0,0,0,1.8,1h0l3,2.6,4.2,3.2,2.1,1.3a13.8,13.8,0,0,0,9.3,4.5l3,1.1,3.3,1.9-1.4.5Z"></path><path fill="#9698a1" d="M1162.9,440.6c-1.5-2.1-3.2-4.1-4.5-6.3l-12.6-21.6,2.4-.8,7.7,13.9c2.6,4.5,5.4,9,8.1,13.5Z"></path><path fill="#b0b1bc" d="M1175.8,514.3l3.7,10.9c-2.5-2.1-5-.7-7.7.6-.7-3.3-1.3-6.3-1.9-9.4Z"></path><path fill="#b0b1bc" d="M1205.7,599.5l1.3,3.5-18.4,6.4c-1.2-1.9-.7-2.9,1.2-3.6l12.6-4.7Z"></path><path fill="#6a6b75" d="M1164,439.3c-2.7-4.5-5.5-9-8.1-13.5l-7.7-13.9,1.8-.6,15.5,26.3a2.9,2.9,0,0,0-.2.9Z"></path><path fill="#a0a1ab" d="M1270.6,501.5c-1.8.7-3.7,1.1-5.3,1.9a50.2,50.2,0,0,1-25.8,5.6h-5.6l-1.3-1.5.9-.4.9-.3,3.3.4h8.8l1-.3h1.5l.9-.3,2-.2,1.4-.5c1.7,1.3,2.8.1,3.9-.8l2.8-1c1.5,0,3.1.3,3.5-1.8l1.4-.4,1.7-1.2.9-.3a13.9,13.9,0,0,0,1.9-.6l4.8-2.7Z"></path><path fill="#4d4e58" d="M1165.5,437.6,1150,411.3c.6.2,1.5.3,1.8.8,4.9,8.3,9.7,16.7,14.6,25.1Z"></path><path fill="#b9bac3" d="M1190.1,470.6l-.7,1.1a3,3,0,0,1-.8.8l-8.6-11.1-2.6-2.8.4-.9,1.3-.6,9.6,12.7c.2.2.7.2,1.1.3Z"></path><path fill="#93959f" d="M1303.5,492l.3.9-.8.8-1.2-.7a15.3,15.3,0,0,0,.7-3.6c0-9.2-.2-18.4-.2-27.6a7.3,7.3,0,0,1,.7-2.4c0,3.1.1,6.2.1,9.3.2,1,.3,2,.5,2.9s-.6,1-.6,1.4c0,3.6.1,7.2.2,10.7l.6,1.9Z"></path><path fill="#6a6b75" d="M1179.1,457.1l-1.3.6-6.2-8.4v-.4l1.3-1.6,6.5,9.2Z"></path><path fill="#a0a1ab" d="M1172.9,447.3l-1.3,1.6-1.6-2.6c-1.6-2.6-3.2-5.2-4.7-7.8a2.9,2.9,0,0,1,.2-.9l.9-.4,3.3,5.1.7.9a5.9,5.9,0,0,1,.4.8l.7.9Z"></path><path fill="#51525d" d="M1288.4,471.3l-2.2,3.9-1.4.5,6-12.5c.2.4.3.9.5,1.4l-1.7,4.2Z"></path><path fill="#80818b" d="M1179.1,457.1l.3-.6,10.1,12.7c.2.2.2.6.3.9s-.9-.1-1.1-.3Z"></path><path fill="#93959f" d="M1274.2,497.1l-4.8,2.7a13.9,13.9,0,0,1-1.9.6l-.3-.9.9-.3.8-.8.9-.3a22.6,22.6,0,0,0,2.2-1.1l6.5-5.1v1.4C1277,494.5,1275.6,495.8,1274.2,497.1Z"></path><path fill="#5b5c67" d="M1291.3,464.6c-.2-.5-.3-1-.5-1.4l1.5-3.2,1.4-.5Z"></path><path fill="#5b5c67" d="M1284.8,475.7l1.4-.5-2.1,4.4h-.5l-.3-.9Z"></path><path fill="#51525d" d="M1303.8,432.1l-1.7,2.8-1.6,2.5a50.1,50.1,0,0,1,1.4-5.2C1302,432,1303.1,432.1,1303.8,432.1Z"></path><path fill="#51525d" d="M1293.7,459.5l-1.4.5c.4-1.2.9-2.3,1.3-3.5a5.8,5.8,0,0,1,.5,1.4C1294,458.4,1293.8,459,1293.7,459.5Z"></path><path fill="#5b5c67" d="M1294.1,457.9a5.8,5.8,0,0,0-.5-1.4l.6-1.3,1.4-.5Z"></path><path fill="#5b5c67" d="M1297.2,450.5c-.4,1-.9,2.1-1.4,3.1a6.9,6.9,0,0,1-.5-1.3l.6-1.3Z"></path><path fill="#51525d" d="M1295.3,452.3a6.9,6.9,0,0,0,.5,1.3c-.1.4-.1.8-.2,1.1l-1.4.5C1294.6,454.2,1294.9,453.2,1295.3,452.3Z"></path><path fill="#5b5c67" d="M1298.3,447.5l-1.2,2.6a5.8,5.8,0,0,0-.5-1.4l.3-.7Z"></path><path fill="#93959f" d="M1233.5,507.1l-.9.4-1.9-.9,1.4-.5.9-.3A6.9,6.9,0,0,1,1233.5,507.1Z"></path><path fill="#51525d" d="M1296.6,448.7a5.8,5.8,0,0,1,.5,1.4.6.6,0,0,1,.1.4l-1.3.5Z"></path><path fill="#51525d" d="M1298.3,447.5l-1.4.5c.3-.7.5-1.5.8-2.3a7.8,7.8,0,0,0,.5,1.4A.6.6,0,0,0,1298.3,447.5Z"></path><path fill="#51525d" d="M1300.5,437.4l-.8,2.4Z"></path><path fill="#51525d" d="M1299.7,439.8c-.2.7-.5,1.5-.7,2.3C1299.2,441.3,1299.5,440.5,1299.7,439.8Z"></path><path fill="#51525d" d="M1298.7,442.7a21.7,21.7,0,0,0-.7,2.4A21.7,21.7,0,0,1,1298.7,442.7Z"></path><path fill="#878892" d="M1303,493.7l.8-.8v1.5Z"></path><path fill="#b0b1bc" d="M1209.6,601.9l.7-1.5Z"></path><path fill="#6a6b75" d="M1170.4,443.2l-.7-.9Z"></path><path fill="#6a6b75" d="M1171.5,444.9l-.7-.9Z"></path><path fill="#c9cad4" d="M1252.7,579.8l.4-.6h0v.8Z"></path><path fill="#c9cad4" d="M1253.1,579.2l.3-.6h0l-.3.6Z"></path><path fill="#2a2b35" d="M1167.1,682.1a21.3,21.3,0,0,1,3-3c7.9-4.6,15.8-9.3,23.8-13.6,14.6-7.8,30.1-13.2,45.8-18.1s31.4-8.3,47.6-9.2c.8-.1,1.6.5,2.4.8l-1.7,1.5-1.2.9-1.6,1.3-2.6,1.8a180.3,180.3,0,0,1-52.8,28.6c-7.3,2.5-14.7,4.7-22.2,6.7a98.7,98.7,0,0,1-32.9,3.5l-2.9.3-1.7-.5-1.7-.3Z"></path><path fill="#5b5c67" d="M1200.8,696.7l-1.8.6h-1.1l-1.8.6H1195l-1.9.6H1192l-6.3,1.1h-1.1l-14.7,1-1.1-.2h-2.6l-5-.8h0l-1.7-.4h0c-3.6-4-3.6-5.7.2-8.3l.9,1.2a.2.2,0,0,1,.2.2c-.7.6-1.9,1.3-1.8,1.8s.9,2.4,1.6,2.6a48.7,48.7,0,0,0,10,1.7,125.9,125.9,0,0,0,31.8-3.9c9.6-2.3,19.1-4.7,28.5-7.5a146.5,146.5,0,0,0,16.7-6.3c7.9-3.3,15.8-6.7,23.6-10.3a125.7,125.7,0,0,0,27.3-16.9,41.9,41.9,0,0,0,6.4-6.9c1.6-2,.4-3.8-2.1-4a47,47,0,0,1-5.1-1.2l1.9-1.8h.5a25.1,25.1,0,0,0,4.6,1.6c2.7.7,3.6,2.1,2.9,4.7a15.5,15.5,0,0,0-.4,2.1h-.1l-1,1.4L1303,652l-.7.8-1.2.9-.8.8-5.4,4-.8.8-2.1,1.3-.8.7-.9.4-.8.7-3,1.7-.8.7-1.4.5-.7.8-1.4.5-.8.8-1.8.6a6,6,0,0,1-.8.8l-1.8.7-1.3.9-2.3.9-.8.7-2.2.8-1.3,1-2.7,1-1.8,1-3.2,1.2-1.7,1.1-4.6,1.7c-1.4-.2-2.7-.2-3.1,1.5l-9.7,3.5-7.8,2.7-10.2,3.5c-1.4-1.1-2.4-.2-3.4.8l-4.6,1.5-2,.3-3.2,1.1-2.1.2-2.3.8-2,.2-2.3.8Z"></path><path fill="#2e2f39" d="M1299.6,639.2l-1.9,1.8-2.9,2.5-12.8,9.9c-1.1.9-2.5,1.3-3.1,0s.2-2.3.9-3c2.3-2,4.8-3.8,7.1-5.8l2.5-1.8,2-1.7,2.4-1.9C1296.6,637.1,1298.3,637.1,1299.6,639.2Z"></path><path fill="#4d4e58" d="M1159.7,690.5c-3.8,2.6-3.8,4.3-.2,8.3-2.9-.3-5-3.1-3.6-5.6a29.8,29.8,0,0,1,11.2-11.1l1.3.7-5.8,5.6C1161.1,688.3,1159.8,688.6,1159.7,690.5Z"></path><path fill="#4d4e58" d="M1307.2,647.5a15.5,15.5,0,0,1,.4-2.1c.7-2.6-.2-4-2.9-4.7a25.1,25.1,0,0,1-4.6-1.6c2.4.4,5.1.4,7.3,1.3S1309.3,645.5,1307.2,647.5Z"></path><path fill="#51525d" d="M1293.8,639.2l-2.4,1.9-3.4-.6,1.7-1.5C1291.1,639,1292.5,637,1293.8,639.2Z"></path><path fill="#4d4e58" d="M1234.5,687.5l7.8-2.7Z"></path><path fill="#4d4e58" d="M1161.2,699.2l5,.8Z"></path><path fill="#4d4e58" d="M1252,681.3c.4-1.7,1.7-1.7,3.1-1.5Z"></path><path fill="#4d4e58" d="M1220.9,691.8c1-1,2-1.9,3.4-.8Z"></path><path fill="#4d4e58" d="M1204.7,695.9l2-.2Z"></path><path fill="#4d4e58" d="M1259.7,678.1l1.7-1.1Z"></path><path fill="#4d4e58" d="M1214.3,693.6l2-.3Z"></path><path fill="#4d4e58" d="M1209,694.9l2.1-.2Z"></path><path fill="#4d4e58" d="M1264.6,675.8l1.8-1Z"></path><path fill="#4d4e58" d="M1275.7,670.4l1.3-.9Z"></path><path fill="#4d4e58" d="M1200.8,696.7h0Z"></path><path fill="#4d4e58" d="M1269.1,673.8l1.3-1Z"></path><path fill="#4d4e58" d="M1159.5,698.8l1.7.4Z"></path><path fill="#4d4e58" d="M1306.1,648.9l1-1.4Z"></path><path fill="#4d4e58" d="M1289.5,662.4l.8-.7Z"></path><path fill="#4d4e58" d="M1184.6,699.3h0Z"></path><path fill="#4d4e58" d="M1285.7,664.8l.8-.7Z"></path><path fill="#4d4e58" d="M1283.6,666.1l.7-.8Z"></path><path fill="#4d4e58" d="M1192,698.3h0Z"></path><path fill="#4d4e58" d="M1281.4,667.4l.8-.8Z"></path><path fill="#4d4e58" d="M1195,697.8h0Z"></path><path fill="#4d4e58" d="M1278.8,668.8a6,6,0,0,0,.8-.8A6,6,0,0,1,1278.8,668.8Z"></path><path fill="#4d4e58" d="M1197.9,697.2h0Z"></path><path fill="#4d4e58" d="M1272.6,672l.8-.7Z"></path><path fill="#4d4e58" d="M1302.3,652.8l.7-.8Z"></path><path fill="#4d4e58" d="M1168.8,700.1l1.1.2Z"></path><path fill="#4d4e58" d="M1300.3,654.5l.8-.8Z"></path><path fill="#4d4e58" d="M1294.1,659.3l.8-.8Z"></path><path fill="#4d4e58" d="M1291.2,661.3l.8-.7Z"></path><path fill="#343540" d="M1282,576.9a74,74,0,0,1-8.7,2.2,5.6,5.6,0,0,1-4.1-1.2c-1.3-1.3-1-3.1.1-4.7s2.4-5.4,5.8-6.2c4.9-1.3,9.7-3,14.8-1.2a5.4,5.4,0,0,1,3,3.3c.2,1.1-1.1,2.9-2.2,3.6C1287.7,574.4,1284.6,575.7,1282,576.9Z"></path><path fill="#343540" d="M1253.1,579.2l.3-.6c.4-.1.9-.4,1.3-.3s2.2.6,2.5,1.3-.6,1.7-1,2.6a22.4,22.4,0,0,1-2.7-1.3c-.2-.1-.2-.6-.3-.9S1253.1,579.5,1253.1,579.2Z"></path><path fill="#343540" d="M1308.3,559.6c2.3,1.7,2.4,2.2.7,4.3-1.6.2-2.8-.2-3.1-1.9S1306.7,559.7,1308.3,559.6Z"></path><path fill="#2a2b35" d="M1060.8,576.1c-4.4-5.1-8.8-10.1-13.1-15.3-2.2-2.6-4-5.4-5.9-8.1a2.9,2.9,0,0,1,.2-.9l.7-.9a11.7,11.7,0,0,1,3.8.5c5.9,2.9,11.7,6,17.6,9,2.2,1.3,4.5,2.4,6.8,3.7s2.7,3,.8,4.9-5.1,4.7-7.7,7.1Z"></path><path fill="#93959f" d="M1064.1,560.4c-5.9-3-11.7-6.1-17.6-9a11.7,11.7,0,0,0-3.8-.5,4.3,4.3,0,0,0-.4-.7c-.4-.9-.9-1.7-1.3-2.6l2.8.4h1l2.5,1.2,3.2,2,13.2,6.3,2.9,1.1,1.3.6a9.1,9.1,0,0,0,2.3,1.5,32.1,32.1,0,0,0,5.3,1.5c3.8.5,7.7.8,11.5,1.1h1.6l.4-.2.8-.7,2-.2c.3,1.2.9,1.4,1.7.4h.5l.3,1a57.6,57.6,0,0,1-8.2,1.1,52.3,52.3,0,0,1-18.3-3.6A15,15,0,0,0,1064.1,560.4Z"></path><path fill="#878892" d="M1060.8,576.1h3.2c-.7,1.6.2,2.8,1.1,4.1,4.9,7,9.8,14.1,14.6,21.2.9,1.3,1.6,2.8,2.4,4.2l-1.7.8c-2.9-4.6-5.8-9.3-8.9-13.9s-7.2-10.1-10.8-15.2C1060.5,577.1,1060.8,576.5,1060.8,576.1Z"></path><path fill="#8e9099" d="M1132.3,535.4c-1.1,2.3-1.9,4.8-3.4,6.8a43.4,43.4,0,0,1-11.8,11.6,5.5,5.5,0,0,0-1.2,1.4l-1,.3-.8-.7.3-.7c1.5-1.3,2.9-2.7,4.3-4.1,4.2-1.8,6.3-5.7,9-8.8.8-.9,1.3-1.9,2-2.8Z"></path><path fill="#2e2f39" d="M1086.2,583c-1.7.6-3.8-.2-4.3-1.7a3.9,3.9,0,0,1,2.1-4.4,3.7,3.7,0,0,1,4.2,2.2A3.2,3.2,0,0,1,1086.2,583Z"></path><path fill="#343540" d="M1098.6,572.4c.7-.9,1.3-2.3,2-2.4s2.1,1,3.1,1.6-.9,2.5-1.7,2.7-2.1-.5-3.1-.9Z"></path><path fill="#2e2f39" d="M1099.9,581.7c-1.1,1.6-1.6,2.8-2.4,3.2a1.8,1.8,0,0,1-2.9-1.5,3.4,3.4,0,0,1,1.5-2.7C1096.8,580.3,1098.1,581.2,1099.9,581.7Z"></path><path fill="#8e9099" d="M1107.1,559.8l-5.6,2-.3-1,5.6-1.9Z"></path><path fill="#93959f" d="M1101.2,560.8l.3,1-2,.2c0-.2-.1-.3-.1-.5l-.3-.9Z"></path><path fill="#8e9099" d="M1111.2,555.3l.9-.4,1-.3v.5l.5,1.4-1.8.6-.2-.5Z"></path><path fill="#8e9099" d="M1099.4,561.5c0,.2.1.3.1.5l-2.3.8a16.3,16.3,0,0,0-1.1-1.7l2-.2Z"></path><path fill="#93959f" d="M1107.1,559.8l-.3-.9,1.8-.7.2.5Z"></path><path fill="#93959f" d="M1096.1,561.1l1.1,1.7h-1.5l-.5-1.4Z"></path><path fill="#93959f" d="M1113.7,556.5l-.5-1.4.9-.3.8.7Z"></path><path fill="#878892" d="M1108.8,558.7l-.2-.5-.6-1.8.9-.3.3.9.5,1.4Z"></path><path fill="#8e9099" d="M1109.7,558.4l-.5-1.4h1.6l.3.9Z"></path><path fill="#8e9099" d="M1095.2,561.4l.5,1.4-1.4.5-.3-1Z"></path><path fill="#93959f" d="M1111.1,557.9l-.3-.9.9-.4.2.5Z"></path><path fill="#2e2f39" d="M1144.6,425.5c5.9-1.4,5.9-1.4,9.2,3.8l7.9,12.2a6.9,6.9,0,0,1,.2,1.3l-2.7,2.2H1158l-8.8-13.7c-.8-1.3-1.6-1.7-2.9-.9s-2.8,1.1-2.5,3.3c1,6.2,1.7,12.5,2.6,18.7s1.4,10.1,2,15.1l9.7-3.4,9.7-3.4-2.3-3.4v-.9l3.2-2.8c2.1,2.9,4.8,5.4,4.7,9.3h0l-3.9,1.8-9.6,4.1-11.2,4.7c-2.6,1.1-4.9-.2-5.2-2.9-.7-5.1-1.2-10.2-1.8-15.3l-3-21.8c-.1-1-.3-1.9-.4-2.9s.8-3.4,2.7-4Z"></path><path fill="#2e2f39" d="M1163,477.9l-10.6,4.2c-1.7.7-3.4,1-4.1-1s.7-3,2.5-3.6l10.5-4.4,5.4-2.1c-.2,1.7-1.6,3.3-.2,5.1h.1Z"></path><path fill="#2e2f39" d="M1169.3,484l-3.5,1.8-6.2,2.7c-1.4.6-2.8.8-3.6-.8s.2-2.8,1.6-3.5,4.3-2.2,6.5-3.2l3.6-1.7h0l1.5,4.5Z"></path><path fill="#a7a9b2" d="M1166.7,471l-5.4,2.1-1.5-4.3,9.6-4.1,3.9-1.8a15.1,15.1,0,0,1-.9,1.8l-3.8,5.5Z"></path><path fill="#2e2f39" d="M1147.4,499.4c2.2-.8,4.1.4,4.8,2.6a2.9,2.9,0,0,1-1.6,3.9c-1.6.6-4-.8-4.6-2.7S1145.9,500,1147.4,499.4Z"></path><path fill="#31323d" d="M1167.1,495.2c.8,2.3.1,4.1-1.4,4.6a2.5,2.5,0,0,1-3.4-1.6,3.3,3.3,0,0,1,1.7-4.1C1165.6,493.6,1166.7,494.2,1167.1,495.2Z"></path><path fill="#a9abb4" d="M1167.7,479.3l-3.6,1.7c-.4-1-.7-2.1-1.1-3.1l3.6-1.7Z"></path><path fill="#343540" d="M1239.3,533.3c-2.2.7-3.8.1-4.4-1.6a4.4,4.4,0,0,1,2.7-5.3,2.9,2.9,0,0,1,4.1,1.9C1242.5,530.6,1241.6,532.4,1239.3,533.3Z"></path><path fill="#343540" d="M1256.3,521.8c.2,2.3.7,4.2-1.4,4.8s-3-.8-3.4-2.4a2.7,2.7,0,0,1,2-3.6C1254.4,520.5,1255.5,521.5,1256.3,521.8Z"></path><path fill="#343540" d="M1252.7,533.4c-.8,1.3-1.3,2.7-1.9,2.8s-1.9-.8-2.8-1.3.6-2.2,1.2-2.4S1251.1,532.9,1252.7,533.4Z"></path><path fill="#343540" d="M1276.4,526c.5,1.8,1.5,4-1,4.7s-3-1.6-3.6-3.3-.5-1.1-.3-1.4a30.1,30.1,0,0,1,1.6-3.1c.9.6,1.9,1.1,2.8,1.8S1276.2,525.6,1276.4,526Z"></path><path fill="#343540" d="M1288.4,522.7c0-1.9-.3-3.3.1-4.6a2.9,2.9,0,0,1,2-1.7c.5-.1,1.6.8,1.9,1.5a19.1,19.1,0,0,1,.7,4.7c0,.7-1.3,2.1-1.6,2A16.1,16.1,0,0,1,1288.4,522.7Z"></path><path fill="#e3e3e6" d="M1167.7,479.3l-1.1-3.1h-.1a85.8,85.8,0,0,0,8.3-3.5c.7-.4,1-1.8,1.4-2.7s-2-1.3-3-1.2a15.5,15.5,0,0,0-4.6,1.5l3.8-5.5a15.1,15.1,0,0,0,.9-1.8h0l3.4-3.7.7-.5,2.6,2.8,8.6,11.1v.4l-.3.2-.7.8v.4l-11.4,15.8-3.2,4.4-3.7-10.5h-.1a23.8,23.8,0,0,0,5-2.6c.7-.6.9-2.1,1.3-3.1-1.2-.3-2.4-1-3.4-.8a21.9,21.9,0,0,0-4.4,2Z"></path><path fill="#767780" d="M1138.3,505.3c0-2.1-.2-4.1-.1-6.1a272.7,272.7,0,0,0-1.7-49.5c-.3-2.8-.6-5.5-.8-8.2-.1-.5.3-1,.5-1.5l.6,4.3c.6,5.4,1.3,10.8,1.9,16.1s.7,9.1,1.1,13.7,0,7.6-.1,11.4a18,18,0,0,1,.2,2.2c-.3,5.6-.6,11.2-.8,16.7Z"></path><path fill="#878892" d="M1138.7,460.4c-.6-5.3-1.3-10.7-1.9-16.1l-.6-4.3a3.6,3.6,0,0,1-.4-.9v-1.6l-.3-.9v-1.5l-.4-.9v-1.6l-.3-.9v-1.6a3.6,3.6,0,0,0-.4-.9c-.1-1.5-.3-3-.5-4.5l-.3-.9c-.2-1.7-.5-3.3-.7-5a5.8,5.8,0,0,1-.5-1.4l1.9-.6.3.9c-.1.6-.3,1.2-.4,1.7a5.8,5.8,0,0,0,.5,1.4v1.6a12.1,12.1,0,0,0,.5,1.4v1.5l.3.9v1.6a7.8,7.8,0,0,1,.5,1.4v1.1l.3.9v1.5a4.2,4.2,0,0,1,.4,1v1.5l.3.9v1.6a5.8,5.8,0,0,1,.5,1.4v1.1l.3.9c.2.4.3.9.5,1.4l.3.9c-.1,1.2-.1,2.5-.2,3.7l.3.9v1.1l.3,1a3.4,3.4,0,0,0-.1,1l.3,1-.2,1.1.4.9c-.1.3-.1.7-.2,1.1l.3.9a4.1,4.1,0,0,1-.1,1.1l.3.9c0,.4-.1.7-.1,1.1l.3.9Z"></path><path fill="#767780" d="M1095.2,561.4l-1.2.9h-.5l-1.7-.4-2,.2-.8.7-.4.2-1.9-.9-5-.8,8.7-.6c6.1-.3,11.9-2.4,17.6-4.5l.6,1.8-1.8.7-5.6,1.9-2.1-.2-1,.3-2,.2Z"></path><path fill="#878892" d="M1037.8,548.8c-.2-.4-.3-.9-.5-1.3l-3.3-4.2c-1.1-1.4-1-2.4.9-2.8l.6.3,1.9.9,2.6,1.7,1.3.6,2.6,1.6a3,3,0,0,1,.4,1h0c-1.5-.6-2.9-1.3-4.4-1.8a25.6,25.6,0,0,0-2.7-.5l-.3.8,4.8,6-2,.2a13.4,13.4,0,0,0-.7-1.8Z"></path><path fill="#878892" d="M1063.7,557.4l-13.2-6.3-.4-1.4.9-.3,13.7,6.6.3.9h0Z"></path><path fill="#8e9099" d="M1081.7,561.5l5,.8.3.9c-3.8-.3-7.7-.6-11.5-1.1a32.1,32.1,0,0,1-5.3-1.5,9.1,9.1,0,0,1-2.3-1.5l.9-.4,7.9,1.9Z"></path><path fill="#8e9099" d="M1138.5,516.1c-.7,3.7-1.2,7.4-2.2,11.1-.5,2-1.8,3.8-2.8,5.7l-.4-.9.3-.6,3.3-11.6c.1-.9.3-1.8.5-2.8Z"></path><path fill="#767780" d="M1034.9,540.5c-1.9.4-2,1.4-.9,2.8l3.3,4.2a5.2,5.2,0,0,1-1.5-.6c-1.8-2.1-3.6-4.2-5.3-6.4a10,10,0,0,1-.9-2.6l.9-.7Z"></path><path fill="#767780" d="M1136.7,519.8l-3.3,11.6c-.2-.5-.7-1-.5-1.4.8-3.1,1.7-6.1,2.6-9.1C1135.6,520.5,1136.3,520.2,1136.7,519.8Z"></path><path fill="#767780" d="M1076.7,560.6l-7.9-1.9-.3-.9Z"></path><path fill="#878892" d="M1138.5,516.1l-1.3.9.3-5.3a13.6,13.6,0,0,1,.4-1.7v-1.5a6,6,0,0,1,.8-.8l.3,2.5v1.5c-.2,1.3-.4,2.6-.7,3.9Z"></path><path fill="#80818b" d="M1133.1,532l.4.9-1.2,2.5-2.6,3C1130.8,536.2,1132,534.1,1133.1,532Z"></path><path fill="#878892" d="M1047.3,549.1l-2.5-1.2a6.9,6.9,0,0,1-.5-1.3h0l.9-.4,3.9,2.3.3.9Z"></path><path fill="#767780" d="M1118.7,550c-1.4,1.4-2.8,2.8-4.3,4.1l-.3-.9Z"></path><path fill="#767780" d="M1132.9,418.8c.2,1.7.5,3.3.7,5C1133.4,422.1,1133.1,420.5,1132.9,418.8Z"></path><path fill="#878892" d="M1068.5,557.8l.3.9-.9.4-1.3-.6a12.1,12.1,0,0,0-1.6-1.6h0l1-.3Z"></path><path fill="#767780" d="M1133.9,424.7c.2,1.5.4,3,.5,4.5C1134.3,427.7,1134.1,426.2,1133.9,424.7Z"></path><path fill="#767780" d="M1111.7,556.6l-.9.4h-1.6l-.3-.9,2.3-.8C1111.4,555.7,1111.5,556.2,1111.7,556.6Z"></path><path fill="#767780" d="M1039.7,551.3l2-.2.3.7a2.9,2.9,0,0,0-.2.9Z"></path><path fill="#878892" d="M1138.3,505.3l.8-.9-.6,2.9-.2-.5Z"></path><path fill="#767780" d="M1049.4,549.4l-.3-.9,1.9.9-.9.3Z"></path><path fill="#767780" d="M1037.4,541.7l-1.9-.9Z"></path><path fill="#80818b" d="M1114.1,553.2l.3.9-.3.7-.9.3v-1.6Z"></path><path fill="#767780" d="M1135.8,437.5v0Z"></path><path fill="#767780" d="M1135.5,435.1v0Z"></path><path fill="#767780" d="M1135.1,432.6v0Z"></path><path fill="#767780" d="M1134.8,430.1v0Z"></path><path fill="#767780" d="M1113.2,553.5v1.1l-1,.3A17.1,17.1,0,0,0,1113.2,553.5Z"></path><path fill="#767780" d="M1137.9,510a13.6,13.6,0,0,0-.4,1.7A13.6,13.6,0,0,1,1137.9,510Z"></path><path fill="#767780" d="M1138.3,506.8l.2.5c.1.1.1.3.2.4a6,6,0,0,0-.8.8C1138,507.9,1138.2,507.4,1138.3,506.8Z"></path><path fill="#767780" d="M1066,556.6l-1,.3-.3-.9Z"></path><path fill="#767780" d="M1045.2,546.2l-.9.4a3,3,0,0,0-.4-1Z"></path><path fill="#767780" d="M1037.8,548.8l1.2.7Z"></path><path fill="#767780" d="M1041.3,544l-1.3-.6Z"></path><path fill="#b0b1bc" d="M1085,609.5c7.2-3.4,14.8-4.3,22.6-3.7,20.2,1.6,35,11.7,45.7,28.4a27.2,27.2,0,0,1,1.1,2.5,200.3,200.3,0,0,0-33.1,26.3c-2.6,2.5-3.6,2.4-5.3-.7-3.4-6.3-6.9-12.7-10.5-18.9Zm26,22.8c2-.6,2.9-2.1,2.4-3.8a4.9,4.9,0,0,0-5.5-2.9,3.4,3.4,0,0,0-2,4.4C1106.5,632.1,1108.6,633,1111,632.3Zm12.5-7.2a4.8,4.8,0,0,0-2.1,1.4,4.7,4.7,0,0,0-.4,3.3c.2.4,2,.8,2.9.4a9.4,9.4,0,0,0,3.7-2.5,2.3,2.3,0,0,0,.3-2.3c-.2-.5-1.2-.8-2-.9A6.2,6.2,0,0,0,1123.5,625.1Zm7.9-2.2c.8-2,1.9-3.8,1.6-4.2a5.3,5.3,0,0,0-3.8-1.8c-1.6.1-2.1,1.9-1.3,3.2S1129.8,621.6,1131.4,622.9Z"></path><path fill="#9698a1" d="M1085,609.5l20.5,33.9c3.6,6.2,7.1,12.6,10.5,18.9,1.7,3.1,2.7,3.2,5.3.7a200.3,200.3,0,0,1,33.1-26.3l1.1,1.7a19.1,19.1,0,0,0-2.8,1.5c-6.5,4.7-13,9.3-19.3,14.3a94.5,94.5,0,0,0-10.9,10.1c-3.5,3.7-5.1,3.7-7.6-.7l-.9-1.2q-11.6-20.1-23.2-40.2c-2.3-4.1-4.7-8.1-7.1-12.1Z"></path><path fill="#80818b" d="M1083.7,610.1c2.4,4,4.8,8,7.1,12.1q11.7,20.1,23.2,40.2l.9,1.2c2.5,4.4,4.1,4.4,7.6.7a94.5,94.5,0,0,1,10.9-10.1c6.3-5,12.8-9.6,19.3-14.3a19.1,19.1,0,0,1,2.8-1.5l.8,1.2c-4.1,2.7-8.4,5.1-12.2,8.1-7.1,5.7-13.9,11.7-20.8,17.7a16.6,16.6,0,0,0-1.8,1.9c-2.1,2.3-4.9,2.3-6.5-.4-3.2-5.5-6.2-11.2-9.4-16.7-4.9-8.4-9.8-16.8-14.8-25.2-2.8-4.8-5.9-9.5-8.9-14.2Z"></path><path fill="#8e9099" d="M1138.7,507.7c-.1-.1-.1-.3-.2-.4l.6-2.9c.2-5.5.5-11.1.8-16.7a18,18,0,0,0-.2-2.2,20.2,20.2,0,0,0,.7-2.3c.1-2.5.1-4.9.1-7.3a15.3,15.3,0,0,1,.7,2.9c-.4,9.7-.8,19.4-1.3,29.1a8.4,8.4,0,0,1-.9,2.3Z"></path><path fill="#8e9099" d="M1138.7,460.4l.9-.3c.2.2.7.4.7.7.2,4.2.5,8.5.6,12.8.1.5-.5.9-.7,1.4l-.4-.9C1139.4,469.5,1139.1,465,1138.7,460.4Z"></path><path fill="#878892" d="M1139.8,474.1l.4.9.3.9c0,2.4,0,4.8-.1,7.3a20.2,20.2,0,0,1-.7,2.3C1139.8,481.7,1139.8,477.9,1139.8,474.1Z"></path><path fill="#8e9099" d="M1138.3,515.6c.3-1.3.5-2.6.7-3.9C1138.8,513,1138.6,514.3,1138.3,515.6Z"></path><path fill="#8e9099" d="M1138.2,447.1c.1-1.2.1-2.5.2-3.7C1138.3,444.6,1138.3,445.9,1138.2,447.1Z"></path><path fill="#8e9099" d="M1134.2,419.4c.1-.5.3-1.1.4-1.7S1134.3,418.9,1134.2,419.4Z"></path><path fill="#8e9099" d="M1138.1,442.5c-.2-.5-.3-1-.5-1.4S1137.9,442,1138.1,442.5Z"></path><path fill="#8e9099" d="M1136.9,437.7v0Z"></path><path fill="#8e9099" d="M1136.6,435.2v0Z"></path><path fill="#8e9099" d="M1136.2,432.7v0Z"></path><path fill="#8e9099" d="M1135.5,427.8v0Z"></path><path fill="#8e9099" d="M1135.2,425.3v0Z"></path><path fill="#8e9099" d="M1134.7,422.4v0Z"></path><path fill="#8e9099" d="M1138.9,455.2c.1-.4.1-.8.2-1.1S1139,454.8,1138.9,455.2Z"></path><path fill="#8e9099" d="M1139.1,457.2a4.1,4.1,0,0,0,.1-1.1Z"></path><path fill="#8e9099" d="M1139.3,459.2c0-.4.1-.7.1-1.1S1139.3,458.8,1139.3,459.2Z"></path><path fill="#8e9099" d="M1137.3,440.2v0Z"></path><path fill="#8e9099" d="M1135.9,430.3c0-.4.1-.8.1-1.1Z"></path><path fill="#8e9099" d="M1138.4,449.1v0Z"></path><path fill="#8e9099" d="M1138.6,451.1a3.4,3.4,0,0,1,.1-1A3.4,3.4,0,0,0,1138.6,451.1Z"></path><path fill="#8e9099" d="M1138.7,453.2c.1-.4.1-.8.2-1.1Z"></path><path fill="#767780" d="M1188.6,472.9v-.4a3,3,0,0,0,.8-.8,16.3,16.3,0,0,1,1.1,1.7l3,2.6c.5.9,1,1.7,1.4,2.6l2,1.4,2.1,2.9,1.9,2.1,6.3,6.5a5.2,5.2,0,0,1-1.8-1Z"></path><path fill="#767780" d="M1245.9,505.4l.9-.3h1.6l.9-.3h1.6l1.3-.5.2.5-.8.8-1.4.5h-1.5l-.9.3h-7.3a10.9,10.9,0,0,1-2.4-.7l.5-.3,1.4-.4Z"></path><path fill="#767780" d="M1225.8,503.1a13.8,13.8,0,0,1-9.3-4.5h1.1l7.5,3.6a6,6,0,0,0,.8.8Z"></path><path fill="#6a6b75" d="M1207.2,491.5l-6.3-6.5-1.9-2.1c.4,0,.9,0,1.1.2,2.8,2.8,5.5,5.7,8.2,8.5Z"></path><path fill="#767780" d="M1255,503.3l5.7-1.6,1.4-.4.3.9-2.7,1-2.8,1-2.8.9-.3-.9Z"></path><path fill="#93959f" d="M1284,483.7c.3,2.7-1.8,3.8-3.3,5.4h0a3.4,3.4,0,0,1,.1-1v-1.6c1-.3,2-.6,1.3-2l.4-.2Z"></path><path fill="#767780" d="M1269.8,498.1l-.9.3a6,6,0,0,0-.8.8l-.9.3h-1.1l-.2-.5.9-.4,2.5-1.8.9-.4,3-2C1272,495.5,1270.9,496.8,1269.8,498.1Z"></path><path fill="#767780" d="M1233,505.8l-.9.3-3.3-1.9h0l1-.3h1.5l1.2.6h1.1l.8.8Z"></path><path fill="#767780" d="M1214.4,497.3l-4.2-3.2h0l1.1.2h0l1.2.6,1.6,1.5.3.9Z"></path><path fill="#6a6b75" d="M1273.2,494.3l-3,2,3.8-3.9a7.8,7.8,0,0,1,.5,1.4Z"></path><path fill="#6a6b75" d="M1234.4,505.3l-.8-.8,5,.8-.5.3-1.3.4-1.8-.4Z"></path><path fill="#6a6b75" d="M1245.9,505.4l-5.9-.5Z"></path><path fill="#767780" d="M1280.8,486.4V488l-1.5,1.5-.3.6-.5.2-.5-1.4h0a17.1,17.1,0,0,0,1.1-1.4l.7-.8,1-.3Z"></path><path fill="#6a6b75" d="M1283.6,479.7h.5c.2.4.3.9.5,1.3l.3.9-1.4.6-.9.3C1282.9,481.7,1283.3,480.7,1283.6,479.7Z"></path><path fill="#6a6b75" d="M1278,488.9l.5,1.4-2.6,1.5h-.5Z"></path><path fill="#767780" d="M1207.2,491.5h1.1l.8.7c.4.6.7,1.2,1.1,1.7h0Z"></path><path fill="#6a6b75" d="M1193.5,476l-3-2.6Z"></path><path fill="#6a6b75" d="M1255,503.3l-1.2.9-1.4.5-.2-.5Z"></path><path fill="#6a6b75" d="M1262.1,501.3l-1.4.4c.1-1.7,1.4-1.5,2.6-1.4l.2.5Z"></path><path fill="#6a6b75" d="M1269.3,496.7l-2.5,1.8Z"></path><path fill="#767780" d="M1228.8,504.2l-3-1.1h.1l.9-.3,1.2.5.8.8Z"></path><path fill="#767780" d="M1275.4,491.9h.5l-1.4,2a7.8,7.8,0,0,0-.5-1.4Z"></path><path fill="#767780" d="M1282.1,484.4c.7,1.4-.3,1.7-1.3,2h0a4.1,4.1,0,0,1,.1-1.1Z"></path><path fill="#767780" d="M1282.6,482.7l.9-.3c.2.4.3.9.5,1.3h0l-1.5.5C1282.5,483.7,1282.6,483.2,1282.6,482.7Z"></path><path fill="#6a6b75" d="M1210.2,494c-.4-.5-.7-1.1-1.1-1.7l2.2,1.9Z"></path><path fill="#767780" d="M1216.5,498.6l-2.1-1.3h1.1l.7.3.3,1Z"></path><path fill="#6a6b75" d="M1196.9,480l-2-1.4Z"></path><path fill="#767780" d="M1263.5,500.8l-.2-.5,1.4-.5h.5l.3.9-.9.3Z"></path><path fill="#6a6b75" d="M1265.2,499.7h-.5l1.2-.9.2.5Z"></path><path fill="#6a6b75" d="M1250.9,504.7h0Z"></path><path fill="#6a6b75" d="M1248.4,505h0Z"></path><path fill="#6a6b75" d="M1279.1,487.5a17.1,17.1,0,0,1-1.1,1.4A17.1,17.1,0,0,0,1279.1,487.5Z"></path><path fill="#6a6b75" d="M1280.9,485.3a4.1,4.1,0,0,0-.1,1.1l-1,.3A17.1,17.1,0,0,0,1280.9,485.3Z"></path><path fill="#6a6b75" d="M1228.8,504.1l-.8-.8,1.8.5Z"></path><path fill="#6a6b75" d="M1226.8,502.8l-.9.3a6,6,0,0,1-.8-.8Z"></path><path fill="#6a6b75" d="M1215.5,497.3h-1.1l-.3-.9Z"></path><path fill="#6a6b75" d="M1216.5,498.6l-.3-1,1.4,1.1Z"></path><path fill="#6a6b75" d="M1232.5,504.4l-1.2-.6Z"></path><path fill="#6a6b75" d="M1212.5,494.8l-1.2-.6Z"></path><path fill="#93959f" d="M1303.4,454.6c.1.5.3.9.4,1.4l-1.3,2v-3.5c-.1-1.5-.4-2.9-.6-4.5l-2.8,1.4.6-2.8,1.6-2.1,1.3-1.2a10.1,10.1,0,0,1,.7,1.5C1303.4,449.4,1303.4,452,1303.4,454.6Z"></path><path fill="#878892" d="M1274.5,493.8l1.4-2,2.6-1.5.5-.2c-.1.4-.1.8-.2,1.1l-.3.7L1272,497a22.6,22.6,0,0,1-2.2,1.1c1.1-1.3,2.2-2.6,3.4-3.8Z"></path><path fill="#878892" d="M1302.5,458l1.3-2v11.8c0,.3-.4.6-.7.9,0-3.1-.1-6.2-.1-9.3A7.8,7.8,0,0,1,1302.5,458Z"></path><path fill="#93959f" d="M1292.1,466.9l2-3.3c1.3,2.1-.3,3.3-1.5,4.6C1292.4,467.8,1292.3,467.3,1292.1,466.9Z"></path><path fill="#93959f" d="M1287.2,478c.3-1,.7-2,1-3l1.4-.5C1289.3,476,1289.7,478,1287.2,478Z"></path><path fill="#93959f" d="M1295.5,458.9l1.5-1.6c-.3,1-.6,2-1,3A7.8,7.8,0,0,0,1295.5,458.9Z"></path><path fill="#93959f" d="M1297.6,454.5l.9-1.8c1.3,1.2.6,2-.5,2.7Z"></path><path fill="#93959f" d="M1284,483.7c-.2-.4-.3-.9-.5-1.3l1.4-.6.9-.3Z"></path><path fill="#878892" d="M1292.1,466.9c.2.4.3.9.5,1.3l-1.5,1.6C1291.4,468.8,1291.8,467.9,1292.1,466.9Z"></path><path fill="#878892" d="M1289.6,474.5l-1.4.5,1.7-2.7Z"></path><path fill="#93959f" d="M1278.8,491.2c.1-.3.1-.7.2-1.1l.3-.6,1.4-.5h0Z"></path><path fill="#878892" d="M1295.5,458.9a7.8,7.8,0,0,1,.5,1.4l-.9.3A10.5,10.5,0,0,0,1295.5,458.9Z"></path><path fill="#878892" d="M1285.8,481.5l-.9.3-.3-.9.9-.3Z"></path><path fill="#878892" d="M1297.6,454.5l.4.9-1,.4Z"></path><path fill="#878892" d="M1303.4,454.6c0-2.6,0-5.2-.1-7.8a10.1,10.1,0,0,0-.7-1.5l-1.3,1.2-1.6,2.1c.3-3.4,2.4-7.1,4.7-7.5l-.3,12.6C1304.1,454,1303.6,454.3,1303.4,454.6Z"></path><path fill="#878892" d="M1303.2,483.7c-.1-3.5-.2-7.1-.2-10.7,0-.4.4-.9.6-1.4.1,3.6.2,7.2.2,10.7A3.5,3.5,0,0,1,1303.2,483.7Z"></path><path fill="#878892" d="M1303.5,492l.3-6.4Z"></path><path fill="#5b5c67" d="M1288.4,471.3l1.2-2.5Z"></path><path fill="#d4d5dd" d="M1161.9,442.8a6.9,6.9,0,0,0-.2-1.3l1.2-.9,1.1-1.3,1.3-.8c1.5,2.6,3.1,5.2,4.7,7.8l1.6,2.6v.4l-.7.9-2.6,2.4Z"></path><path fill="#acaeb7" d="M1187.6,473.9l.7-.8Z"></path><path fill="#878892" d="M1236.8,506l1.3-.4a10.9,10.9,0,0,0,2.4.7h7.3l-.3.7-1,.3h-8.8l-1.4-1Z"></path><path fill="#93959f" d="M1239.2,507.2h0Z"></path><path fill="#93959f" d="M1259.7,503.2l2.7-1h1.1c-.4,2.1-2,1.8-3.5,1.8Z"></path><path fill="#93959f" d="M1254.1,505.1l2.8-.9.3.9c-1.1.9-2.2,2.1-3.9.8Z"></path><path fill="#93959f" d="M1236.3,506.2l1.4,1-3.3-.4,1.4-.5Z"></path><path fill="#878892" d="M1235.8,506.3l-1.4.5-.9.3a6.9,6.9,0,0,0-.5-1.3l1.4-.5.6.3Z"></path><path fill="#878892" d="M1263.5,502.3h-1.1l-.3-.9,1.4-.5h1.1l.3,1Z"></path><path fill="#878892" d="M1254.1,505.1l-.8.8-1.4.5-.3-.9.8-.8,1.4-.5Z"></path><path fill="#878892" d="M1257.2,505.1l-.3-.9,2.8-1,.3.9Z"></path><path fill="#93959f" d="M1251.6,505.5l.3.9-2,.2.3-.6Z"></path><path fill="#878892" d="M1265.2,499.7l.9-.3h1.1l.3.9-.9.3h-1.1Z"></path><path fill="#93959f" d="M1265.5,500.6h1.1l-1.7,1.2-.3-1Z"></path><path fill="#93959f" d="M1247.5,507l.3-.7.9-.3.3.9Z"></path><path fill="#878892" d="M1249,506.9l-.3-.9h1.5l-.3.6Z"></path><path fill="#80818b" d="M1170.9,450.2l.7-.9,6.2,8.4-.4.9-.7.5Z"></path><path fill="#878892" d="M1268.1,499.2a6,6,0,0,1,.8-.8Z"></path><path fill="#9698a1" d="M1286.9,644.6c-2.3,2-4.8,3.8-7.1,5.8-.7.7-1.3,2.3-.9,3s2,.9,3.1,0l12.8-9.9,4.7,1.5-1.1,1.2c-8.8,6.6-17.7,12.9-27.6,17.7s-18.1,9-27.4,12.6c-12.3,4.7-24.8,8.6-37.3,12.6a113.4,113.4,0,0,1-12.5,3l-5.5,1.4.3.7,2.3-.6c10.8-2.4,21.8-4.2,32.4-7.5,12.3-3.8,24.4-8.6,36.3-13.6a193.5,193.5,0,0,0,23.6-12c6.3-3.8,11.9-8.5,17.7-13,.7-.6.8-2.2,1.1-3.4s2-.3,1.6.8a6.7,6.7,0,0,1-1.7,3.1c-3.6,3.1-7.2,6.2-11,8.9-12.5,8.6-26.1,15.1-40.1,20.7-9.9,4-20.2,7.2-30.4,10.2s-18.4,4.8-27.7,6.6a88,88,0,0,1-27.6,1.6c-3.4-.4-3.8-.8-4.1-4.1a.2.2,0,0,0-.2-.2c5.2.7,10.3,1.6,15.5,2.1a57.8,57.8,0,0,0,9.3,0c.8-.1,1.6-1.1,2.3-1.7a11.6,11.6,0,0,0-2.4-1.4c-.6-.3-1.3,0-1.9-.1l-15.9-1.2,1.8-2.6,2.5-3.2,2.9-.3a98.7,98.7,0,0,0,32.9-3.5c7.5-2,14.9-4.2,22.2-6.7a180.3,180.3,0,0,0,52.8-28.6l2.6-1.8Z"></path><path fill="#878892" d="M1171.8,683.6l-2.5,3.2-1.8,2.6-2.6-.4a27.8,27.8,0,0,1,2.1-2.7l3.1-3.2Z"></path><path fill="#6a6b75" d="M1170.1,683.1l-3.1,3.2a27.8,27.8,0,0,0-2.1,2.7l-2.3-.6,5.8-5.6Z"></path><path fill="#878892" d="M1286.9,644.6l-1.7-1.9,1.6-1.3,2.6,1.4Z"></path><path fill="#6a6b75" d="M1289.4,642.8l-2.6-1.4,1.2-.9,3.4.6Z"></path><path fill="#8c8d97" d="M1160.8,691.9c.3,3.3.7,3.7,4.1,4.1a88,88,0,0,0,27.6-1.6c9.3-1.8,18.6-4,27.7-6.6s20.5-6.2,30.4-10.2c14-5.6,27.6-12.1,40.1-20.7,3.8-2.7,7.4-5.8,11-8.9a6.7,6.7,0,0,0,1.7-3.1c.4-1.1-.3-1.4-1.6-.8l-2.3.9-4.7-1.5,2.9-2.5a47,47,0,0,0,5.1,1.2c2.5.2,3.7,2,2.1,4a41.9,41.9,0,0,1-6.4,6.9,125.7,125.7,0,0,1-27.3,16.9c-7.8,3.6-15.7,7-23.6,10.3a146.5,146.5,0,0,1-16.7,6.3c-9.4,2.8-18.9,5.2-28.5,7.5a125.9,125.9,0,0,1-31.8,3.9,48.7,48.7,0,0,1-10-1.7c-.7-.2-1.4-1.7-1.6-2.6S1160.1,692.5,1160.8,691.9Z"></path><path fill="#2e2f39" d="M1162.6,688.4l2.3.6,2.6.4,15.9,1.2c.6.1,1.3-.2,1.9.1a11.6,11.6,0,0,1,2.4,1.4c-.7.6-1.5,1.6-2.3,1.7a57.8,57.8,0,0,1-9.3,0c-5.2-.5-10.3-1.4-15.5-2.1l-.9-1.2C1159.8,688.6,1161.1,688.3,1162.6,688.4Z"></path><path fill="#8e9099" d="M1042,551.8l-.3-.7-4.8-6,.3-.8a25.6,25.6,0,0,1,2.7.5c1.5.5,2.9,1.2,4.4,1.8a6.9,6.9,0,0,0,.5,1.3h-1l-2.8-.4c.4.9.9,1.7,1.3,2.6a4.3,4.3,0,0,1,.4.7Z"></path><path fill="#8e9099" d="M1049.4,549.4l.7.3.4,1.4-3.2-2Z"></path><path fill="#8e9099" d="M1065,556.9a12.1,12.1,0,0,1,1.6,1.6l-2.9-1.1Z"></path><path fill="#878892" d="M1087,563.2l-.3-.9,1.9.9Z"></path><path fill="#8e9099" d="M1091.8,562.1l1.7.4C1092.7,563.5,1092.1,563.3,1091.8,562.1Z"></path><path fill="#878892" d="M1089,563l.8-.7Z"></path><path fill="#878892" d="M1098.1,560.9l1-.3.3.9Z"></path><path fill="#9698a1" d="M1158.1,464l-9.7,3.4c-.6-5-1.3-10.1-2-15.1s-1.6-12.5-2.6-18.7c-.3-2.2.3-3.2,2.5-3.3Z"></path><path fill="#acaeb7" d="M1158.1,464l-11.8-33.7c1.3-.8,2.1-.4,2.9.9l8.8,13.7a5.6,5.6,0,0,1,.5.8l.4.7c-.6,1.1-1.8,2.3-1.6,3.1,1.1,4,2.6,7.9,4.1,12.2l4.1-4.5,2.3,3.4Z"></path><path fill="#515364" d="M1158.9,446.4a2.5,2.5,0,0,1-.4-.7l.7-.7,2.7-2.2,6.4,9.8.3.9-3.2,2.8C1163.2,453,1161,449.7,1158.9,446.4Z"></path><path fill="#e3e3e6" d="M1158.9,446.4c2.1,3.3,4.3,6.6,6.5,9.9,0,.3.1.6.1.9l-4.1,4.5c-1.5-4.3-3-8.2-4.1-12.2C1157.1,448.7,1158.3,447.5,1158.9,446.4Z"></path><path fill="#a7a9b2" d="M1168.6,453.5l-.3-.9,2.6-2.4,5.8,8.9-3.4,3.7C1173.4,458.9,1170.7,456.4,1168.6,453.5Z"></path><path fill="#343540" d="M1159.2,445l-.7.7a5.6,5.6,0,0,0-.5-.8Z"></path><path fill="#5b5c67" d="M1168.6,470.2a15.5,15.5,0,0,1,4.6-1.5c1-.1,2,.8,3,1.2s-.7,2.3-1.4,2.7a85.8,85.8,0,0,1-8.3,3.5c-1.4-1.8,0-3.4.2-5.1Z"></path><path fill="#5b5c67" d="M1167.7,479.4a21.9,21.9,0,0,1,4.4-2c1-.2,2.2.5,3.4.8-.4,1-.6,2.5-1.3,3.1a23.8,23.8,0,0,1-5,2.6Z"></path><path fill="#31323d" d="M1111,632.3c-2.4.7-4.5-.2-5.1-2.3a3.4,3.4,0,0,1,2-4.4,4.9,4.9,0,0,1,5.5,2.9C1113.9,630.2,1113,631.7,1111,632.3Z"></path><path fill="#2e2f39" d="M1123.5,625.1a6.2,6.2,0,0,1,2.4-.6c.8.1,1.8.4,2,.9a2.3,2.3,0,0,1-.3,2.3,9.4,9.4,0,0,1-3.7,2.5c-.9.4-2.7,0-2.9-.4a4.7,4.7,0,0,1,.4-3.3A4.8,4.8,0,0,1,1123.5,625.1Z"></path><path fill="#31323d" d="M1131.4,622.9c-1.6-1.3-2.9-1.8-3.5-2.8s-.3-3.1,1.3-3.2a5.3,5.3,0,0,1,3.8,1.8C1133.3,619.1,1132.2,620.9,1131.4,622.9Z"></path><path fill="#878892" d="M1280.7,489l-1.4.5,1.5-1.5A3.4,3.4,0,0,0,1280.7,489Z"></path><path fill="#767780" d="M1235.8,506.3l-.8-.7,1.8.4-.5.2Z"></path><path fill="#a7a9b2" d="M1299.5,645l2.3-.9c-.3,1.2-.4,2.8-1.1,3.4-5.8,4.5-11.4,9.2-17.7,13a193.5,193.5,0,0,1-23.6,12c-11.9,5-24,9.8-36.3,13.6-10.6,3.3-21.6,5.1-32.4,7.5l-2.3.6-.3-.7,5.5-1.4a113.4,113.4,0,0,0,12.5-3c12.5-4,25-7.9,37.3-12.6,9.3-3.6,18.3-8.3,27.4-12.6s18.8-11.1,27.6-17.7Z"></path></svg><g id="item_d"></g><g id="item_c"></g><g id="item_b"></g><g id="item_a"></g></svg>